<svg width="365" height="238" viewBox="0 0 365 238" fill="none" xmlns="http://www.w3.org/2000/svg">
<g clip-path="url(#clip0_4_29)">
<path d="M174.87 45.91C172.8 44.73 170.38 44.12 167.82 44.29C165.51 44.44 163.38 45.22 161.6 46.43L156.74 40.57C152.91 43.39 150.11 47.53 149.03 52.33L141.02 51.14C143.01 41.08 150.42 32.78 160.31 29.73" stroke="#2496F2" stroke-width="3.5" stroke-miterlimit="10"/>
<path d="M157.07 52.02C156.36 53.74 156.02 55.65 156.15 57.64C156.29 59.75 156.95 61.71 157.99 63.39C159.02 65.06 160.43 66.46 162.08 67.48L158.34 74.09C161.36 75.89 164.88 76.93 168.65 76.93C171.16 76.93 173.55 76.47 175.77 75.64L178.42 83.02C176.11 83.87 173.65 84.44 171.08 84.66C162.88 85.38 155.19 82.5 149.57 77.34" stroke="#2496F2" stroke-width="3.5" stroke-miterlimit="10"/>
<path d="M179.29 63.45C177.23 66.74 173.67 69.03 169.5 69.3" stroke="#2496F2" stroke-width="3.5" stroke-miterlimit="10"/>
<path d="M171.68 59.79C170.92 60.56 169.93 60.98 168.92 61.04C167.75 61.11 166.56 60.7 165.66 59.82C164.85 59.02 164.43 57.97 164.4 56.91C164.37 55.79 164.78 54.66 165.63 53.8C166.2 53.22 166.9 52.85 167.63 52.66C168.43 52.46 169.27 52.5 170.05 52.77C170.63 52.97 171.18 53.3 171.64 53.77" stroke="#2496F2" stroke-width="3.5" stroke-miterlimit="10"/>
<path d="M176.98 47.46C179.55 49.75 181.17 53.09 181.17 56.8H188.79C188.79 50.86 186.22 45.52 182.13 41.84L187.25 35.51C192.48 40.12 196.02 46.67 196.67 54.16C196.94 57.22 196.71 60.21 196.04 63.04" stroke="#2496F2" stroke-width="3.5" stroke-miterlimit="10"/>
<path d="M168.65 36.73C173.184 36.73 176.86 33.0543 176.86 28.52C176.86 23.9857 173.184 20.31 168.65 20.31C164.116 20.31 160.44 23.9857 160.44 28.52C160.44 33.0543 164.116 36.73 168.65 36.73Z" stroke="#2496F2" stroke-width="3.5" stroke-miterlimit="10"/>
<path d="M193.07 79.02C197.604 79.02 201.28 75.3443 201.28 70.81C201.28 66.2757 197.604 62.6 193.07 62.6C188.536 62.6 184.86 66.2757 184.86 70.81C184.86 75.3443 188.536 79.02 193.07 79.02Z" stroke="#2496F2" stroke-width="3.5" stroke-miterlimit="10"/>
<path d="M144.29 79.02C148.824 79.02 152.5 75.3443 152.5 70.81C152.5 66.2757 148.824 62.6 144.29 62.6C139.756 62.6 136.08 66.2757 136.08 70.81C136.08 75.3443 139.756 79.02 144.29 79.02Z" stroke="#2496F2" stroke-width="3.5" stroke-miterlimit="10"/>
<path d="M111.64 132.704C111.64 133.368 111.556 133.972 111.388 134.516C111.22 135.052 110.968 135.516 110.632 135.908C110.304 136.3 109.892 136.6 109.396 136.808C108.908 137.016 108.34 137.12 107.692 137.12C107.02 137.12 106.436 137.016 105.94 136.808C105.444 136.592 105.032 136.292 104.704 135.908C104.376 135.516 104.132 135.048 103.972 134.504C103.812 133.96 103.732 133.356 103.732 132.692C103.732 131.812 103.876 131.044 104.164 130.388C104.452 129.732 104.888 129.22 105.472 128.852C106.064 128.484 106.808 128.3 107.704 128.3C108.56 128.3 109.28 128.484 109.864 128.852C110.448 129.212 110.888 129.724 111.184 130.388C111.488 131.044 111.64 131.816 111.64 132.704ZM104.872 132.704C104.872 133.424 104.972 134.044 105.172 134.564C105.372 135.084 105.68 135.484 106.096 135.764C106.52 136.044 107.052 136.184 107.692 136.184C108.34 136.184 108.868 136.044 109.276 135.764C109.692 135.484 110 135.084 110.2 134.564C110.4 134.044 110.5 133.424 110.5 132.704C110.5 131.624 110.276 130.78 109.828 130.172C109.38 129.556 108.672 129.248 107.704 129.248C107.056 129.248 106.52 129.388 106.096 129.668C105.68 129.94 105.372 130.336 105.172 130.856C104.972 131.368 104.872 131.984 104.872 132.704Z" fill="#080FB3"/>
<path d="M113.059 133.136C113.059 132.2 113.151 131.404 113.335 130.748C113.527 130.084 113.819 129.556 114.211 129.164C114.611 128.764 115.123 128.496 115.747 128.36C116.267 128.248 116.775 128.148 117.271 128.06C117.767 127.972 118.231 127.892 118.663 127.82L118.843 128.744C118.635 128.776 118.403 128.816 118.147 128.864C117.891 128.904 117.631 128.948 117.367 128.996C117.103 129.036 116.847 129.08 116.599 129.128C116.359 129.168 116.147 129.208 115.963 129.248C115.699 129.304 115.463 129.4 115.255 129.536C115.047 129.664 114.867 129.84 114.715 130.064C114.571 130.288 114.455 130.564 114.367 130.892C114.279 131.22 114.227 131.608 114.211 132.056H114.283C114.395 131.904 114.547 131.748 114.739 131.588C114.939 131.428 115.175 131.292 115.447 131.18C115.727 131.068 116.043 131.012 116.395 131.012C116.955 131.012 117.419 131.136 117.787 131.384C118.163 131.624 118.443 131.96 118.627 132.392C118.819 132.824 118.915 133.328 118.915 133.904C118.915 134.616 118.791 135.212 118.543 135.692C118.295 136.172 117.951 136.532 117.511 136.772C117.071 137.004 116.559 137.12 115.975 137.12C115.535 137.12 115.135 137.036 114.775 136.868C114.415 136.692 114.107 136.436 113.851 136.1C113.595 135.764 113.399 135.348 113.263 134.852C113.127 134.356 113.059 133.784 113.059 133.136ZM116.059 136.244C116.411 136.244 116.715 136.172 116.971 136.028C117.235 135.884 117.439 135.648 117.583 135.32C117.727 134.992 117.799 134.556 117.799 134.012C117.799 133.356 117.675 132.84 117.427 132.464C117.187 132.08 116.787 131.888 116.227 131.888C115.875 131.888 115.555 131.968 115.267 132.128C114.979 132.28 114.739 132.456 114.547 132.656C114.355 132.856 114.219 133.024 114.139 133.16C114.139 133.552 114.167 133.932 114.223 134.3C114.279 134.668 114.375 135 114.511 135.296C114.655 135.584 114.851 135.816 115.099 135.992C115.355 136.16 115.675 136.244 116.059 136.244ZM129.291 130.568V136.124H130.227V139.22H129.171V137H120.579V130.568H121.635V136.112H124.407V130.568H125.463V136.112H128.247V130.568H129.291ZM133.938 130.448C134.49 130.448 134.962 130.568 135.354 130.808C135.754 131.048 136.058 131.388 136.266 131.828C136.482 132.26 136.59 132.768 136.59 133.352V133.988H132.186C132.202 134.716 132.386 135.272 132.738 135.656C133.098 136.032 133.598 136.22 134.238 136.22C134.646 136.22 135.006 136.184 135.318 136.112C135.638 136.032 135.966 135.92 136.302 135.776V136.7C135.974 136.844 135.65 136.948 135.33 137.012C135.01 137.084 134.63 137.12 134.19 137.12C133.582 137.12 133.042 136.996 132.57 136.748C132.106 136.5 131.742 136.132 131.478 135.644C131.222 135.148 131.094 134.544 131.094 133.832C131.094 133.128 131.21 132.524 131.442 132.02C131.682 131.516 132.014 131.128 132.438 130.856C132.87 130.584 133.37 130.448 133.938 130.448ZM133.926 131.312C133.422 131.312 133.022 131.476 132.726 131.804C132.438 132.124 132.266 132.572 132.21 133.148H135.486C135.486 132.78 135.43 132.46 135.318 132.188C135.206 131.916 135.034 131.704 134.802 131.552C134.578 131.392 134.286 131.312 133.926 131.312ZM140.807 137.12C140.239 137.12 139.731 137.004 139.283 136.772C138.843 136.54 138.495 136.18 138.239 135.692C137.991 135.204 137.867 134.58 137.867 133.82C137.867 133.028 137.999 132.384 138.263 131.888C138.527 131.392 138.883 131.028 139.331 130.796C139.787 130.564 140.303 130.448 140.879 130.448C141.207 130.448 141.523 130.484 141.827 130.556C142.131 130.62 142.379 130.7 142.571 130.796L142.247 131.672C142.055 131.6 141.831 131.532 141.575 131.468C141.319 131.404 141.079 131.372 140.855 131.372C140.423 131.372 140.067 131.464 139.787 131.648C139.507 131.832 139.299 132.104 139.163 132.464C139.027 132.824 138.959 133.272 138.959 133.808C138.959 134.32 139.027 134.756 139.163 135.116C139.299 135.476 139.503 135.748 139.775 135.932C140.047 136.116 140.387 136.208 140.795 136.208C141.147 136.208 141.455 136.172 141.719 136.1C141.991 136.028 142.239 135.94 142.463 135.836V136.772C142.247 136.884 142.007 136.968 141.743 137.024C141.487 137.088 141.175 137.12 140.807 137.12ZM148.433 131.456H146.333V137H145.289V131.456H143.213V130.568H148.433V131.456ZM154.872 132.188C154.872 132.588 154.752 132.9 154.512 133.124C154.272 133.348 153.964 133.5 153.588 133.58V133.628C153.988 133.684 154.336 133.828 154.632 134.06C154.928 134.284 155.076 134.636 155.076 135.116C155.076 135.388 155.024 135.64 154.92 135.872C154.824 136.104 154.672 136.304 154.464 136.472C154.256 136.64 153.988 136.772 153.66 136.868C153.332 136.956 152.936 137 152.472 137H149.7V130.568H152.46C152.916 130.568 153.324 130.62 153.684 130.724C154.052 130.82 154.34 130.988 154.548 131.228C154.764 131.46 154.872 131.78 154.872 132.188ZM153.984 135.116C153.984 134.748 153.844 134.484 153.564 134.324C153.284 134.164 152.872 134.084 152.328 134.084H150.756V136.148H152.352C152.88 136.148 153.284 136.072 153.564 135.92C153.844 135.76 153.984 135.492 153.984 135.116ZM153.804 132.32C153.804 132.016 153.692 131.796 153.468 131.66C153.252 131.516 152.896 131.444 152.4 131.444H150.756V133.208H152.208C152.728 133.208 153.124 133.136 153.396 132.992C153.668 132.848 153.804 132.624 153.804 132.32ZM159.098 130.448C159.65 130.448 160.122 130.568 160.514 130.808C160.914 131.048 161.218 131.388 161.426 131.828C161.642 132.26 161.75 132.768 161.75 133.352V133.988H157.346C157.362 134.716 157.546 135.272 157.898 135.656C158.258 136.032 158.758 136.22 159.398 136.22C159.806 136.22 160.166 136.184 160.478 136.112C160.798 136.032 161.126 135.92 161.462 135.776V136.7C161.134 136.844 160.81 136.948 160.49 137.012C160.17 137.084 159.79 137.12 159.35 137.12C158.742 137.12 158.202 136.996 157.73 136.748C157.266 136.5 156.902 136.132 156.638 135.644C156.382 135.148 156.254 134.544 156.254 133.832C156.254 133.128 156.37 132.524 156.602 132.02C156.842 131.516 157.174 131.128 157.598 130.856C158.03 130.584 158.53 130.448 159.098 130.448ZM159.086 131.312C158.582 131.312 158.182 131.476 157.886 131.804C157.598 132.124 157.426 132.572 157.37 133.148H160.646C160.646 132.78 160.59 132.46 160.478 132.188C160.366 131.916 160.194 131.704 159.962 131.552C159.738 131.392 159.446 131.312 159.086 131.312ZM164.443 130.568V133.244H167.935V130.568H168.991V137H167.935V134.132H164.443V137H163.387V130.568H164.443ZM172.084 130.568V133.244H175.576V130.568H176.632V137H175.576V134.132H172.084V137H171.028V130.568H172.084ZM178.668 137V130.568H179.724V133.208H181.392C181.952 133.208 182.412 133.276 182.772 133.412C183.132 133.548 183.4 133.752 183.576 134.024C183.752 134.288 183.84 134.624 183.84 135.032C183.84 135.432 183.752 135.78 183.576 136.076C183.408 136.372 183.14 136.6 182.772 136.76C182.412 136.92 181.936 137 181.344 137H178.668ZM181.248 136.148C181.704 136.148 182.076 136.072 182.364 135.92C182.652 135.76 182.796 135.484 182.796 135.092C182.796 134.7 182.664 134.436 182.4 134.3C182.136 134.156 181.756 134.084 181.26 134.084H179.724V136.148H181.248ZM184.908 137V130.568H185.964V137H184.908ZM193.216 127.904C193.184 128.304 193.084 128.64 192.916 128.912C192.756 129.184 192.516 129.388 192.196 129.524C191.876 129.66 191.46 129.728 190.948 129.728C190.428 129.728 190.008 129.66 189.688 129.524C189.376 129.388 189.148 129.188 189.004 128.924C188.86 128.652 188.772 128.312 188.74 127.904H189.724C189.764 128.336 189.876 128.628 190.06 128.78C190.252 128.924 190.556 128.996 190.972 128.996C191.34 128.996 191.628 128.92 191.836 128.768C192.052 128.608 192.18 128.32 192.22 127.904H193.216ZM189.004 134.492C189.004 134.564 189 134.668 188.992 134.804C188.992 134.932 188.988 135.072 188.98 135.224C188.972 135.368 188.964 135.508 188.956 135.644C188.948 135.772 188.94 135.876 188.932 135.956L192.376 130.568H193.672V137H192.688V133.208C192.688 133.08 192.688 132.912 192.688 132.704C192.696 132.496 192.704 132.292 192.712 132.092C192.72 131.884 192.728 131.728 192.736 131.624L189.316 137H188.008V130.568H189.004V134.492ZM211.659 133.772C211.659 134.308 211.587 134.784 211.443 135.2C211.307 135.608 211.107 135.956 210.843 136.244C210.587 136.532 210.271 136.752 209.895 136.904C209.527 137.048 209.115 137.12 208.659 137.12C208.235 137.12 207.843 137.048 207.483 136.904C207.123 136.752 206.811 136.532 206.547 136.244C206.283 135.956 206.075 135.608 205.923 135.2C205.779 134.784 205.707 134.308 205.707 133.772C205.707 133.06 205.827 132.46 206.067 131.972C206.307 131.476 206.651 131.1 207.099 130.844C207.547 130.58 208.079 130.448 208.695 130.448C209.279 130.448 209.791 130.58 210.231 130.844C210.679 131.1 211.027 131.476 211.275 131.972C211.531 132.46 211.659 133.06 211.659 133.772ZM206.799 133.772C206.799 134.276 206.863 134.716 206.991 135.092C207.127 135.46 207.335 135.744 207.615 135.944C207.895 136.144 208.251 136.244 208.683 136.244C209.115 136.244 209.471 136.144 209.751 135.944C210.031 135.744 210.235 135.46 210.363 135.092C210.499 134.716 210.567 134.276 210.567 133.772C210.567 133.26 210.499 132.824 210.363 132.464C210.227 132.104 210.019 131.828 209.739 131.636C209.467 131.436 209.111 131.336 208.671 131.336C208.015 131.336 207.539 131.552 207.243 131.984C206.947 132.416 206.799 133.012 206.799 133.772ZM218.505 132.188C218.505 132.588 218.385 132.9 218.145 133.124C217.905 133.348 217.597 133.5 217.221 133.58V133.628C217.621 133.684 217.969 133.828 218.265 134.06C218.561 134.284 218.709 134.636 218.709 135.116C218.709 135.388 218.657 135.64 218.553 135.872C218.457 136.104 218.305 136.304 218.097 136.472C217.889 136.64 217.621 136.772 217.293 136.868C216.965 136.956 216.569 137 216.105 137H213.333V130.568H216.093C216.549 130.568 216.957 130.62 217.317 130.724C217.685 130.82 217.973 130.988 218.181 131.228C218.397 131.46 218.505 131.78 218.505 132.188ZM217.617 135.116C217.617 134.748 217.477 134.484 217.197 134.324C216.917 134.164 216.505 134.084 215.961 134.084H214.389V136.148H215.985C216.513 136.148 216.917 136.072 217.197 135.92C217.477 135.76 217.617 135.492 217.617 135.116ZM217.437 132.32C217.437 132.016 217.325 131.796 217.101 131.66C216.885 131.516 216.529 131.444 216.033 131.444H214.389V133.208H215.84C216.361 133.208 216.757 133.136 217.029 132.992C217.301 132.848 217.437 132.624 217.437 132.32ZM222.731 130.448C223.283 130.448 223.755 130.568 224.147 130.808C224.547 131.048 224.851 131.388 225.059 131.828C225.275 132.26 225.383 132.768 225.383 133.352V133.988H220.979C220.995 134.716 221.179 135.272 221.531 135.656C221.891 136.032 222.391 136.22 223.031 136.22C223.439 136.22 223.799 136.184 224.111 136.112C224.431 136.032 224.759 135.92 225.095 135.776V136.7C224.767 136.844 224.443 136.948 224.123 137.012C223.803 137.084 223.423 137.12 222.983 137.12C222.375 137.12 221.835 136.996 221.363 136.748C220.899 136.5 220.535 136.132 220.271 135.644C220.015 135.148 219.887 134.544 219.887 133.832C219.887 133.128 220.003 132.524 220.235 132.02C220.475 131.516 220.807 131.128 221.231 130.856C221.663 130.584 222.163 130.448 222.731 130.448ZM222.719 131.312C222.215 131.312 221.815 131.476 221.519 131.804C221.231 132.124 221.059 132.572 221.003 133.148H224.279C224.279 132.78 224.223 132.46 224.111 132.188C223.999 131.916 223.827 131.704 223.595 131.552C223.371 131.392 223.079 131.312 222.719 131.312ZM231.46 131.456H229.36V137H228.316V131.456H226.24V130.568H231.46V131.456Z" fill="#0F0F0F"/>
<path d="M202.301 129.26C201.845 129.26 201.433 129.34 201.065 129.5C200.697 129.652 200.385 129.88 200.129 130.184C199.873 130.48 199.677 130.844 199.541 131.276C199.405 131.7 199.337 132.18 199.337 132.716C199.337 133.42 199.445 134.032 199.661 134.552C199.885 135.072 200.213 135.472 200.645 135.752C201.085 136.032 201.633 136.172 202.289 136.172C202.665 136.172 203.021 136.14 203.357 136.076C203.693 136.012 204.021 135.932 204.341 135.836V136.772C204.021 136.892 203.689 136.98 203.345 137.036C203.009 137.092 202.605 137.12 202.133 137.12C201.261 137.12 200.533 136.94 199.949 136.58C199.365 136.22 198.925 135.708 198.629 135.044C198.341 134.38 198.197 133.6 198.197 132.704C198.197 132.056 198.285 131.464 198.461 130.928C198.645 130.392 198.909 129.928 199.253 129.536C199.605 129.144 200.037 128.844 200.549 128.636C201.061 128.42 201.649 128.312 202.313 128.312C202.753 128.312 203.177 128.356 203.585 128.444C203.993 128.532 204.357 128.656 204.677 128.816L204.245 129.728C203.981 129.608 203.685 129.5 203.357 129.404C203.037 129.308 202.685 129.26 202.301 129.26Z" fill="#080FB3"/>
<path d="M111.683 153.052V156.256H110.651V154H104.207V145.432H105.287V153.04H109.571V145.432H110.639V153.052H111.683ZM178.44 145.432C179.56 145.432 180.376 145.652 180.888 146.092C181.4 146.532 181.656 147.152 181.656 147.952C181.656 148.304 181.596 148.644 181.476 148.972C181.364 149.292 181.176 149.58 180.912 149.836C180.648 150.092 180.296 150.296 179.856 150.448C179.416 150.592 178.876 150.664 178.236 150.664H177.252V154H176.172V145.432H178.44ZM178.344 146.356H177.252V149.74H178.116C178.66 149.74 179.112 149.684 179.472 149.572C179.832 149.452 180.1 149.264 180.276 149.008C180.452 148.752 180.54 148.416 180.54 148C180.54 147.448 180.364 147.036 180.012 146.764C179.66 146.492 179.104 146.356 178.344 146.356Z" fill="#080FB3"/>
<path d="M113.954 151.492C113.954 151.564 113.95 151.668 113.942 151.804C113.942 151.932 113.938 152.072 113.93 152.224C113.922 152.368 113.914 152.508 113.906 152.644C113.898 152.772 113.89 152.876 113.882 152.956L117.326 147.568H118.622V154H117.638V150.208C117.638 150.08 117.638 149.912 117.638 149.704C117.646 149.496 117.654 149.292 117.662 149.092C117.67 148.884 117.678 148.728 117.686 148.624L114.266 154H112.958V147.568H113.954V151.492ZM124.508 147.472C125.148 147.528 125.704 147.696 126.176 147.976C126.656 148.256 127.028 148.632 127.292 149.104C127.556 149.576 127.688 150.136 127.688 150.784C127.688 151.432 127.56 151.996 127.304 152.476C127.048 152.948 126.684 153.324 126.212 153.604C125.74 153.876 125.172 154.04 124.508 154.096V156.88H123.476V154.096C122.844 154.04 122.288 153.876 121.808 153.604C121.328 153.324 120.956 152.948 120.692 152.476C120.428 151.996 120.296 151.432 120.296 150.784C120.296 150.128 120.424 149.564 120.68 149.092C120.936 148.612 121.304 148.236 121.784 147.964C122.264 147.684 122.84 147.52 123.512 147.472V144.88H124.508V147.472ZM123.512 148.348C123.024 148.396 122.624 148.52 122.312 148.72C122 148.92 121.768 149.192 121.616 149.536C121.472 149.88 121.4 150.296 121.4 150.784C121.4 151.264 121.472 151.68 121.616 152.032C121.768 152.376 122 152.652 122.312 152.86C122.624 153.06 123.024 153.184 123.512 153.232V148.348ZM124.508 153.232C124.988 153.176 125.38 153.048 125.684 152.848C125.996 152.648 126.224 152.376 126.368 152.032C126.52 151.68 126.596 151.264 126.596 150.784C126.596 150.304 126.52 149.892 126.368 149.548C126.216 149.204 125.984 148.932 125.672 148.732C125.368 148.532 124.98 148.408 124.508 148.36V153.232ZM132.424 147.448C133.216 147.448 133.852 147.724 134.332 148.276C134.82 148.828 135.064 149.66 135.064 150.772C135.064 151.5 134.952 152.116 134.728 152.62C134.512 153.116 134.204 153.492 133.804 153.748C133.412 153.996 132.948 154.12 132.412 154.12C132.084 154.12 131.792 154.076 131.536 153.988C131.28 153.9 131.06 153.788 130.876 153.652C130.7 153.508 130.548 153.352 130.42 153.184H130.348C130.364 153.32 130.38 153.492 130.396 153.7C130.412 153.908 130.42 154.088 130.42 154.24V156.88H129.364V147.568H130.228L130.372 148.444H130.42C130.548 148.26 130.7 148.092 130.876 147.94C131.06 147.788 131.276 147.668 131.524 147.58C131.78 147.492 132.08 147.448 132.424 147.448ZM132.232 148.336C131.8 148.336 131.452 148.42 131.188 148.588C130.924 148.748 130.732 148.992 130.612 149.32C130.492 149.648 130.428 150.064 130.42 150.568V150.772C130.42 151.3 130.476 151.748 130.588 152.116C130.7 152.484 130.888 152.764 131.152 152.956C131.424 153.148 131.792 153.244 132.256 153.244C132.648 153.244 132.968 153.136 133.216 152.92C133.472 152.704 133.66 152.412 133.78 152.044C133.908 151.668 133.972 151.24 133.972 150.76C133.972 150.024 133.828 149.436 133.54 148.996C133.26 148.556 132.824 148.336 132.232 148.336ZM142.339 150.772C142.339 151.308 142.267 151.784 142.123 152.2C141.987 152.608 141.787 152.956 141.523 153.244C141.267 153.532 140.951 153.752 140.575 153.904C140.207 154.048 139.795 154.12 139.339 154.12C138.915 154.12 138.523 154.048 138.163 153.904C137.803 153.752 137.491 153.532 137.227 153.244C136.963 152.956 136.755 152.608 136.603 152.2C136.459 151.784 136.387 151.308 136.387 150.772C136.387 150.06 136.507 149.46 136.747 148.972C136.987 148.476 137.331 148.1 137.779 147.844C138.227 147.58 138.759 147.448 139.375 147.448C139.959 147.448 140.471 147.58 140.911 147.844C141.359 148.1 141.707 148.476 141.955 148.972C142.211 149.46 142.339 150.06 142.339 150.772ZM137.479 150.772C137.479 151.276 137.543 151.716 137.671 152.092C137.807 152.46 138.015 152.744 138.295 152.944C138.575 153.144 138.931 153.244 139.363 153.244C139.795 153.244 140.151 153.144 140.431 152.944C140.711 152.744 140.915 152.46 141.043 152.092C141.179 151.716 141.247 151.276 141.247 150.772C141.247 150.26 141.179 149.824 141.043 149.464C140.907 149.104 140.699 148.828 140.419 148.636C140.147 148.436 139.791 148.336 139.351 148.336C138.695 148.336 138.219 148.552 137.923 148.984C137.627 149.416 137.479 150.012 137.479 150.772ZM149.184 149.188C149.184 149.588 149.064 149.9 148.824 150.124C148.584 150.348 148.276 150.5 147.9 150.58V150.628C148.3 150.684 148.648 150.828 148.944 151.06C149.24 151.284 149.388 151.636 149.388 152.116C149.388 152.388 149.336 152.64 149.232 152.872C149.136 153.104 148.984 153.304 148.776 153.472C148.568 153.64 148.3 153.772 147.972 153.868C147.644 153.956 147.248 154 146.784 154H144.012V147.568H146.772C147.228 147.568 147.636 147.62 147.996 147.724C148.364 147.82 148.652 147.988 148.86 148.228C149.076 148.46 149.184 148.78 149.184 149.188ZM148.296 152.116C148.296 151.748 148.156 151.484 147.876 151.324C147.596 151.164 147.184 151.084 146.64 151.084H145.068V153.148H146.664C147.192 153.148 147.596 153.072 147.876 152.92C148.156 152.76 148.296 152.492 148.296 152.116ZM148.116 149.32C148.116 149.016 148.004 148.796 147.78 148.66C147.564 148.516 147.208 148.444 146.712 148.444H145.068V150.208H146.52C147.04 150.208 147.436 150.136 147.708 149.992C147.98 149.848 148.116 149.624 148.116 149.32ZM156.518 150.772C156.518 151.308 156.446 151.784 156.302 152.2C156.166 152.608 155.966 152.956 155.702 153.244C155.446 153.532 155.13 153.752 154.754 153.904C154.386 154.048 153.974 154.12 153.518 154.12C153.094 154.12 152.702 154.048 152.342 153.904C151.982 153.752 151.67 153.532 151.406 153.244C151.142 152.956 150.934 152.608 150.782 152.2C150.638 151.784 150.566 151.308 150.566 150.772C150.566 150.06 150.686 149.46 150.926 148.972C151.166 148.476 151.51 148.1 151.958 147.844C152.406 147.58 152.938 147.448 153.554 147.448C154.138 147.448 154.65 147.58 155.09 147.844C155.538 148.1 155.886 148.476 156.134 148.972C156.39 149.46 156.518 150.06 156.518 150.772ZM151.658 150.772C151.658 151.276 151.722 151.716 151.85 152.092C151.986 152.46 152.194 152.744 152.474 152.944C152.754 153.144 153.11 153.244 153.542 153.244C153.974 153.244 154.33 153.144 154.61 152.944C154.89 152.744 155.094 152.46 155.222 152.092C155.358 151.716 155.426 151.276 155.426 150.772C155.426 150.26 155.358 149.824 155.222 149.464C155.086 149.104 154.878 148.828 154.598 148.636C154.326 148.436 153.97 148.336 153.53 148.336C152.874 148.336 152.398 148.552 152.102 148.984C151.806 149.416 151.658 150.012 151.658 150.772ZM165.092 147.568V154H164.144V149.896C164.144 149.728 164.148 149.552 164.156 149.368C164.172 149.184 164.188 149.004 164.204 148.828H164.168L162.068 154H161.18L159.14 148.828H159.104C159.12 149.004 159.128 149.184 159.128 149.368C159.136 149.552 159.14 149.74 159.14 149.932V154H158.192V147.568H159.596L161.624 152.74L163.688 147.568H165.092ZM166.137 147.568H167.265L168.657 151.228C168.737 151.444 168.809 151.652 168.873 151.852C168.945 152.052 169.009 152.248 169.065 152.44C169.121 152.624 169.165 152.804 169.197 152.98H169.245C169.293 152.78 169.369 152.52 169.473 152.2C169.577 151.872 169.685 151.544 169.797 151.216L171.105 147.568H172.245L169.473 154.888C169.321 155.288 169.141 155.636 168.933 155.932C168.733 156.236 168.485 156.468 168.189 156.628C167.901 156.796 167.549 156.88 167.133 156.88C166.941 156.88 166.773 156.868 166.629 156.844C166.485 156.828 166.361 156.808 166.257 156.784V155.944C166.345 155.96 166.449 155.976 166.569 155.992C166.697 156.008 166.829 156.016 166.965 156.016C167.213 156.016 167.425 155.968 167.601 155.872C167.785 155.784 167.941 155.652 168.069 155.476C168.197 155.308 168.305 155.108 168.393 154.876L168.729 154.024L166.137 147.568ZM185.729 147.46C186.513 147.46 187.093 147.632 187.469 147.976C187.845 148.32 188.033 148.868 188.033 149.62V154H187.265L187.061 153.088H187.013C186.829 153.32 186.637 153.516 186.437 153.676C186.245 153.828 186.021 153.94 185.765 154.012C185.517 154.084 185.213 154.12 184.853 154.12C184.469 154.12 184.121 154.052 183.809 153.916C183.505 153.78 183.265 153.572 183.089 153.292C182.913 153.004 182.825 152.644 182.825 152.212C182.825 151.572 183.077 151.08 183.581 150.736C184.085 150.384 184.861 150.192 185.909 150.16L187.001 150.124V149.74C187.001 149.204 186.885 148.832 186.653 148.624C186.421 148.416 186.093 148.312 185.669 148.312C185.333 148.312 185.013 148.364 184.709 148.468C184.405 148.564 184.121 148.676 183.857 148.804L183.533 148.012C183.813 147.86 184.145 147.732 184.529 147.628C184.913 147.516 185.313 147.46 185.729 147.46ZM186.041 150.892C185.241 150.924 184.685 151.052 184.373 151.276C184.069 151.5 183.917 151.816 183.917 152.224C183.917 152.584 184.025 152.848 184.241 153.016C184.465 153.184 184.749 153.268 185.093 153.268C185.637 153.268 186.089 153.12 186.449 152.824C186.809 152.52 186.989 152.056 186.989 151.432V150.856L186.041 150.892ZM191.712 147.448C192.2 147.448 192.624 147.516 192.984 147.652C193.344 147.78 193.624 147.972 193.824 148.228C194.024 148.476 194.124 148.78 194.124 149.14C194.124 149.532 194.016 149.844 193.8 150.076C193.584 150.3 193.288 150.464 192.912 150.568V150.616C193.168 150.688 193.404 150.788 193.62 150.916C193.836 151.044 194.008 151.212 194.136 151.42C194.272 151.628 194.34 151.896 194.34 152.224C194.34 152.576 194.24 152.896 194.04 153.184C193.848 153.472 193.548 153.7 193.14 153.868C192.74 154.036 192.224 154.12 191.592 154.12C191.288 154.12 190.996 154.104 190.716 154.072C190.444 154.04 190.196 153.992 189.972 153.928C189.756 153.864 189.564 153.788 189.396 153.7V152.752C189.668 152.88 189.988 152.996 190.356 153.1C190.732 153.204 191.14 153.256 191.58 153.256C191.9 153.256 192.188 153.22 192.444 153.148C192.708 153.076 192.916 152.964 193.068 152.812C193.22 152.652 193.296 152.436 193.296 152.164C193.296 151.916 193.228 151.716 193.092 151.564C192.956 151.404 192.752 151.284 192.48 151.204C192.216 151.124 191.876 151.084 191.46 151.084H190.596V150.22H191.292C191.844 150.22 192.284 150.148 192.612 150.004C192.948 149.852 193.116 149.596 193.116 149.236C193.116 148.932 192.988 148.704 192.732 148.552C192.484 148.4 192.124 148.324 191.652 148.324C191.3 148.324 190.988 148.36 190.716 148.432C190.452 148.496 190.16 148.596 189.84 148.732L189.468 147.892C189.812 147.74 190.172 147.628 190.548 147.556C190.924 147.484 191.312 147.448 191.712 147.448ZM201.075 149.188C201.075 149.588 200.955 149.9 200.715 150.124C200.475 150.348 200.167 150.5 199.791 150.58V150.628C200.191 150.684 200.539 150.828 200.835 151.06C201.131 151.284 201.279 151.636 201.279 152.116C201.279 152.388 201.227 152.64 201.123 152.872C201.027 153.104 200.875 153.304 200.667 153.472C200.459 153.64 200.191 153.772 199.863 153.868C199.535 153.956 199.139 154 198.675 154H195.903V147.568H198.663C199.119 147.568 199.527 147.62 199.887 147.724C200.255 147.82 200.543 147.988 200.751 148.228C200.967 148.46 201.075 148.78 201.075 149.188ZM200.187 152.116C200.187 151.748 200.047 151.484 199.767 151.324C199.487 151.164 199.075 151.084 198.531 151.084H196.959V153.148H198.555C199.083 153.148 199.487 153.072 199.767 152.92C200.047 152.76 200.187 152.492 200.187 152.116ZM200.007 149.32C200.007 149.016 199.895 148.796 199.671 148.66C199.455 148.516 199.099 148.444 198.603 148.444H196.959V150.208H198.411C198.931 150.208 199.327 150.136 199.599 149.992C199.871 149.848 200.007 149.624 200.007 149.32ZM203.813 151.492C203.813 151.564 203.809 151.668 203.801 151.804C203.801 151.932 203.797 152.072 203.789 152.224C203.781 152.368 203.773 152.508 203.765 152.644C203.757 152.772 203.749 152.876 203.741 152.956L207.185 147.568H208.481V154H207.497V150.208C207.497 150.08 207.497 149.912 207.497 149.704C207.505 149.496 207.513 149.292 207.521 149.092C207.529 148.884 207.537 148.728 207.545 148.624L204.125 154H202.817V147.568H203.813V151.492ZM214.968 148.456H212.868V154H211.824V148.456H209.748V147.568H214.968V148.456ZM217.231 151.492C217.231 151.564 217.227 151.668 217.219 151.804C217.219 151.932 217.215 152.072 217.207 152.224C217.199 152.368 217.191 152.508 217.183 152.644C217.175 152.772 217.167 152.876 217.159 152.956L220.603 147.568H221.899V154H220.915V150.208C220.915 150.08 220.915 149.912 220.915 149.704C220.923 149.496 220.931 149.292 220.939 149.092C220.947 148.884 220.955 148.728 220.963 148.624L217.543 154H216.235V147.568H217.231V151.492ZM232.298 150.772C232.298 151.484 232.182 152.092 231.95 152.596C231.718 153.092 231.39 153.472 230.966 153.736C230.542 153.992 230.038 154.12 229.454 154.12C228.91 154.12 228.434 154.008 228.026 153.784C227.618 153.552 227.294 153.216 227.054 152.776C226.814 152.328 226.674 151.78 226.634 151.132H225.002V154H223.946V147.568H225.002V150.244H226.646C226.702 149.636 226.85 149.128 227.09 148.72C227.338 148.304 227.662 147.988 228.062 147.772C228.47 147.556 228.942 147.448 229.478 147.448C230.03 147.448 230.518 147.58 230.942 147.844C231.366 148.1 231.698 148.476 231.938 148.972C232.178 149.46 232.298 150.06 232.298 150.772ZM227.714 150.772C227.714 151.308 227.774 151.76 227.894 152.128C228.022 152.496 228.214 152.776 228.47 152.968C228.726 153.152 229.058 153.244 229.466 153.244C229.874 153.244 230.206 153.152 230.462 152.968C230.718 152.776 230.906 152.496 231.026 152.128C231.146 151.76 231.206 151.308 231.206 150.772C231.206 150.236 231.146 149.788 231.026 149.428C230.906 149.068 230.718 148.796 230.462 148.612C230.206 148.428 229.874 148.336 229.466 148.336C229.058 148.336 228.726 148.428 228.47 148.612C228.214 148.796 228.022 149.068 227.894 149.428C227.774 149.788 227.714 150.236 227.714 150.772Z" fill="#0F0F0F"/>
<path d="M106.172 164.432C107.292 164.432 108.108 164.652 108.62 165.092C109.132 165.532 109.388 166.152 109.388 166.952C109.388 167.304 109.328 167.644 109.208 167.972C109.096 168.292 108.908 168.58 108.644 168.836C108.38 169.092 108.028 169.296 107.588 169.448C107.148 169.592 106.608 169.664 105.968 169.664H104.984V173H103.904V164.432H106.172ZM106.076 165.356H104.984V168.74H105.848C106.392 168.74 106.844 168.684 107.204 168.572C107.564 168.452 107.832 168.264 108.008 168.008C108.184 167.752 108.272 167.416 108.272 167C108.272 166.448 108.096 166.036 107.744 165.764C107.392 165.492 106.836 165.356 106.076 165.356ZM113.51 166.448C114.062 166.448 114.534 166.568 114.926 166.808C115.326 167.048 115.63 167.388 115.838 167.828C116.054 168.26 116.162 168.768 116.162 169.352V169.988H111.758C111.774 170.716 111.958 171.272 112.31 171.656C112.67 172.032 113.17 172.22 113.81 172.22C114.218 172.22 114.578 172.184 114.89 172.112C115.21 172.032 115.538 171.92 115.874 171.776V172.7C115.546 172.844 115.222 172.948 114.902 173.012C114.582 173.084 114.202 173.12 113.762 173.12C113.154 173.12 112.614 172.996 112.142 172.748C111.678 172.5 111.314 172.132 111.05 171.644C110.794 171.148 110.666 170.544 110.666 169.832C110.666 169.128 110.782 168.524 111.014 168.02C111.254 167.516 111.586 167.128 112.01 166.856C112.442 166.584 112.942 166.448 113.51 166.448ZM113.498 167.312C112.994 167.312 112.594 167.476 112.298 167.804C112.01 168.124 111.838 168.572 111.782 169.148H115.058C115.058 168.78 115.002 168.46 114.89 168.188C114.778 167.916 114.606 167.704 114.374 167.552C114.15 167.392 113.858 167.312 113.498 167.312ZM120.379 173.12C119.811 173.12 119.303 173.004 118.855 172.772C118.415 172.54 118.067 172.18 117.811 171.692C117.563 171.204 117.439 170.58 117.439 169.82C117.439 169.028 117.571 168.384 117.835 167.888C118.099 167.392 118.455 167.028 118.903 166.796C119.359 166.564 119.875 166.448 120.451 166.448C120.779 166.448 121.095 166.484 121.399 166.556C121.703 166.62 121.951 166.7 122.143 166.796L121.819 167.672C121.627 167.6 121.403 167.532 121.147 167.468C120.891 167.404 120.651 167.372 120.427 167.372C119.995 167.372 119.639 167.464 119.359 167.648C119.079 167.832 118.871 168.104 118.735 168.464C118.599 168.824 118.531 169.272 118.531 169.808C118.531 170.32 118.599 170.756 118.735 171.116C118.871 171.476 119.075 171.748 119.347 171.932C119.619 172.116 119.959 172.208 120.367 172.208C120.719 172.208 121.027 172.172 121.291 172.1C121.563 172.028 121.811 171.94 122.035 171.836V172.772C121.819 172.884 121.579 172.968 121.315 173.024C121.059 173.088 120.747 173.12 120.379 173.12ZM129.001 166.568V173H127.945V167.468H124.621V173H123.565V166.568H129.001ZM130.045 166.568H131.173L132.565 170.228C132.645 170.444 132.717 170.652 132.781 170.852C132.853 171.052 132.917 171.248 132.973 171.44C133.029 171.624 133.073 171.804 133.105 171.98H133.153C133.201 171.78 133.277 171.52 133.381 171.2C133.485 170.872 133.593 170.544 133.705 170.216L135.013 166.568H136.153L133.381 173.888C133.229 174.288 133.049 174.636 132.841 174.932C132.641 175.236 132.393 175.468 132.097 175.628C131.809 175.796 131.457 175.88 131.041 175.88C130.849 175.88 130.681 175.868 130.537 175.844C130.393 175.828 130.269 175.808 130.165 175.784V174.944C130.253 174.96 130.357 174.976 130.477 174.992C130.605 175.008 130.737 175.016 130.873 175.016C131.121 175.016 131.333 174.968 131.509 174.872C131.693 174.784 131.849 174.652 131.977 174.476C132.105 174.308 132.213 174.108 132.301 173.876L132.637 173.024L130.045 166.568ZM136.834 169.136C136.834 168.2 136.926 167.404 137.11 166.748C137.302 166.084 137.594 165.556 137.986 165.164C138.386 164.764 138.898 164.496 139.522 164.36C140.042 164.248 140.55 164.148 141.046 164.06C141.542 163.972 142.006 163.892 142.438 163.82L142.618 164.744C142.41 164.776 142.178 164.816 141.922 164.864C141.666 164.904 141.406 164.948 141.142 164.996C140.878 165.036 140.622 165.08 140.374 165.128C140.134 165.168 139.922 165.208 139.738 165.248C139.474 165.304 139.238 165.4 139.03 165.536C138.822 165.664 138.642 165.84 138.49 166.064C138.346 166.288 138.23 166.564 138.142 166.892C138.054 167.22 138.002 167.608 137.986 168.056H138.058C138.17 167.904 138.322 167.748 138.514 167.588C138.714 167.428 138.95 167.292 139.222 167.18C139.502 167.068 139.818 167.012 140.17 167.012C140.73 167.012 141.194 167.136 141.562 167.384C141.938 167.624 142.218 167.96 142.402 168.392C142.594 168.824 142.69 169.328 142.69 169.904C142.69 170.616 142.566 171.212 142.318 171.692C142.07 172.172 141.726 172.532 141.286 172.772C140.846 173.004 140.334 173.12 139.75 173.12C139.31 173.12 138.91 173.036 138.55 172.868C138.19 172.692 137.882 172.436 137.626 172.1C137.37 171.764 137.174 171.348 137.038 170.852C136.902 170.356 136.834 169.784 136.834 169.136ZM139.834 172.244C140.186 172.244 140.49 172.172 140.746 172.028C141.01 171.884 141.214 171.648 141.358 171.32C141.502 170.992 141.574 170.556 141.574 170.012C141.574 169.356 141.45 168.84 141.202 168.464C140.962 168.08 140.562 167.888 140.002 167.888C139.65 167.888 139.33 167.968 139.042 168.128C138.754 168.28 138.514 168.456 138.322 168.656C138.13 168.856 137.994 169.024 137.914 169.16C137.914 169.552 137.942 169.932 137.998 170.3C138.054 170.668 138.15 171 138.286 171.296C138.43 171.584 138.626 171.816 138.874 171.992C139.13 172.16 139.45 172.244 139.834 172.244ZM149.25 173H148.182V167.444H146.286C146.206 168.46 146.106 169.328 145.986 170.048C145.866 170.76 145.714 171.34 145.53 171.788C145.346 172.236 145.126 172.564 144.87 172.772C144.614 172.98 144.314 173.084 143.97 173.084C143.866 173.084 143.762 173.076 143.658 173.06C143.562 173.052 143.482 173.032 143.418 173V172.208C143.466 172.224 143.518 172.236 143.574 172.244C143.63 172.252 143.686 172.256 143.742 172.256C143.918 172.256 144.078 172.184 144.222 172.04C144.366 171.896 144.494 171.676 144.606 171.38C144.726 171.084 144.834 170.712 144.93 170.264C145.026 169.808 145.11 169.272 145.182 168.656C145.254 168.04 145.318 167.344 145.374 166.568H149.25V173ZM152.287 170.492C152.287 170.564 152.283 170.668 152.275 170.804C152.275 170.932 152.271 171.072 152.263 171.224C152.255 171.368 152.247 171.508 152.239 171.644C152.231 171.772 152.223 171.876 152.215 171.956L155.659 166.568H156.955V173H155.971V169.208C155.971 169.08 155.971 168.912 155.971 168.704C155.979 168.496 155.987 168.292 155.995 168.092C156.003 167.884 156.011 167.728 156.019 167.624L152.599 173H151.291V166.568H152.287V170.492ZM162.806 166.568H163.958L161.21 169.664L164.186 173H162.962L160.058 169.736V173H159.002V166.568H160.058V169.688L162.806 166.568ZM166.35 170.492C166.35 170.564 166.346 170.668 166.338 170.804C166.338 170.932 166.334 171.072 166.326 171.224C166.318 171.368 166.31 171.508 166.302 171.644C166.294 171.772 166.286 171.876 166.278 171.956L169.722 166.568H171.018V173H170.034V169.208C170.034 169.08 170.034 168.912 170.034 168.704C170.042 168.496 170.05 168.292 170.058 168.092C170.066 167.884 170.074 167.728 170.082 167.624L166.662 173H165.354V166.568H166.35V170.492ZM175.986 164.432H176.994V169.136C176.994 169.336 176.99 169.556 176.982 169.796C176.982 170.028 176.978 170.26 176.97 170.492C176.962 170.724 176.95 170.932 176.934 171.116C176.926 171.292 176.918 171.428 176.91 171.524H176.958L181.674 164.432H182.874V173H181.866V168.344C181.866 168.128 181.87 167.896 181.878 167.648C181.886 167.392 181.894 167.148 181.902 166.916C181.918 166.676 181.93 166.464 181.938 166.28C181.946 166.096 181.954 165.96 181.962 165.872H181.914L177.186 173H175.986V164.432ZM186.097 166.568V169.244H189.589V166.568H190.645V173H189.589V170.132H186.097V173H185.041V166.568H186.097ZM196.606 166.568V167.456H193.738V173H192.682V166.568H196.606ZM196.865 166.568H197.993L199.385 170.228C199.465 170.444 199.537 170.652 199.601 170.852C199.673 171.052 199.737 171.248 199.793 171.44C199.849 171.624 199.893 171.804 199.925 171.98H199.973C200.021 171.78 200.097 171.52 200.201 171.2C200.305 170.872 200.413 170.544 200.525 170.216L201.833 166.568H202.973L200.201 173.888C200.049 174.288 199.869 174.636 199.661 174.932C199.461 175.236 199.213 175.468 198.917 175.628C198.629 175.796 198.277 175.88 197.861 175.88C197.669 175.88 197.501 175.868 197.357 175.844C197.213 175.828 197.089 175.808 196.985 175.784V174.944C197.073 174.96 197.177 174.976 197.297 174.992C197.425 175.008 197.557 175.016 197.693 175.016C197.941 175.016 198.153 174.968 198.329 174.872C198.513 174.784 198.669 174.652 198.797 174.476C198.925 174.308 199.033 174.108 199.121 173.876L199.457 173.024L196.865 166.568ZM212.715 166.568V173H203.991V166.568H205.047V172.112H207.819V166.568H208.875V172.112H211.659V166.568H212.715ZM217.256 166.448C217.808 166.448 218.28 166.568 218.672 166.808C219.072 167.048 219.376 167.388 219.584 167.828C219.8 168.26 219.908 168.768 219.908 169.352V169.988H215.504C215.52 170.716 215.704 171.272 216.056 171.656C216.416 172.032 216.916 172.22 217.556 172.22C217.964 172.22 218.324 172.184 218.636 172.112C218.956 172.032 219.284 171.92 219.62 171.776V172.7C219.292 172.844 218.968 172.948 218.648 173.012C218.328 173.084 217.948 173.12 217.508 173.12C216.9 173.12 216.36 172.996 215.888 172.748C215.424 172.5 215.06 172.132 214.796 171.644C214.54 171.148 214.412 170.544 214.412 169.832C214.412 169.128 214.528 168.524 214.76 168.02C215 167.516 215.332 167.128 215.756 166.856C216.188 166.584 216.688 166.448 217.256 166.448ZM217.244 167.312C216.74 167.312 216.34 167.476 216.044 167.804C215.756 168.124 215.584 168.572 215.528 169.148H218.804C218.804 168.78 218.748 168.46 218.636 168.188C218.524 167.916 218.352 167.704 218.12 167.552C217.896 167.392 217.604 167.312 217.244 167.312ZM225.985 167.456H223.885V173H222.841V167.456H220.765V166.568H225.985V167.456ZM228.248 170.492C228.248 170.564 228.244 170.668 228.236 170.804C228.236 170.932 228.232 171.072 228.224 171.224C228.216 171.368 228.208 171.508 228.2 171.644C228.192 171.772 228.184 171.876 228.176 171.956L231.62 166.568H232.916V173H231.932V169.208C231.932 169.08 231.932 168.912 231.932 168.704C231.94 168.496 231.948 168.292 231.956 168.092C231.964 167.884 231.972 167.728 231.98 167.624L228.56 173H227.252V166.568H228.248V170.492ZM235.359 173H234.135L235.971 170.3C235.723 170.236 235.483 170.136 235.251 170C235.019 169.856 234.831 169.66 234.687 169.412C234.543 169.156 234.471 168.84 234.471 168.464C234.471 167.848 234.679 167.38 235.095 167.06C235.511 166.732 236.063 166.568 236.751 166.568H239.631V173H238.575V170.444H237.015L235.359 173ZM235.491 168.476C235.491 168.844 235.627 169.12 235.899 169.304C236.179 169.48 236.567 169.568 237.063 169.568H238.575V167.444H236.859C236.371 167.444 236.019 167.54 235.803 167.732C235.595 167.924 235.491 168.172 235.491 168.476Z" fill="#0F0F0F"/>
<path d="M138.253 104.544C138.253 106.315 138.029 107.925 137.581 109.376C137.133 110.805 136.461 112.043 135.565 113.088C134.69 114.133 133.592 114.933 132.269 115.488C130.968 116.043 129.453 116.32 127.725 116.32C125.933 116.32 124.376 116.043 123.053 115.488C121.73 114.912 120.632 114.112 119.757 113.088C118.882 112.043 118.232 110.795 117.805 109.344C117.378 107.893 117.165 106.283 117.165 104.512C117.165 102.165 117.549 100.117 118.317 98.368C119.085 96.6187 120.248 95.2533 121.805 94.272C123.384 93.2907 125.368 92.8 127.757 92.8C130.04 92.8 131.96 93.2907 133.517 94.272C135.074 95.232 136.248 96.5973 137.037 98.368C137.848 100.117 138.253 102.176 138.253 104.544ZM120.205 104.544C120.205 106.464 120.472 108.117 121.005 109.504C121.538 110.891 122.36 111.957 123.469 112.704C124.6 113.451 126.018 113.824 127.725 113.824C129.453 113.824 130.861 113.451 131.949 112.704C133.058 111.957 133.88 110.891 134.413 109.504C134.946 108.117 135.213 106.464 135.213 104.544C135.213 101.664 134.616 99.4133 133.421 97.792C132.226 96.1493 130.338 95.328 127.757 95.328C126.029 95.328 124.6 95.7013 123.469 96.448C122.36 97.1733 121.538 98.2293 121.005 99.616C120.472 100.981 120.205 102.624 120.205 104.544ZM160.484 95.36C159.268 95.36 158.169 95.5733 157.188 96C156.207 96.4053 155.375 97.0133 154.692 97.824C154.009 98.6133 153.487 99.584 153.124 100.736C152.761 101.867 152.58 103.147 152.58 104.576C152.58 106.453 152.868 108.085 153.444 109.472C154.041 110.859 154.916 111.925 156.068 112.672C157.241 113.419 158.703 113.792 160.452 113.792C161.455 113.792 162.404 113.707 163.3 113.536C164.196 113.365 165.071 113.152 165.924 112.896V115.392C165.071 115.712 164.185 115.947 163.268 116.096C162.372 116.245 161.295 116.32 160.036 116.32C157.711 116.32 155.769 115.84 154.212 114.88C152.655 113.92 151.481 112.555 150.692 110.784C149.924 109.013 149.54 106.933 149.54 104.544C149.54 102.816 149.775 101.237 150.244 99.808C150.735 98.3787 151.439 97.1413 152.356 96.096C153.295 95.0507 154.447 94.2507 155.812 93.696C157.177 93.12 158.745 92.832 160.516 92.832C161.689 92.832 162.82 92.9493 163.908 93.184C164.996 93.4187 165.967 93.7493 166.82 94.176L165.668 96.608C164.964 96.288 164.175 96 163.3 95.744C162.447 95.488 161.508 95.36 160.484 95.36ZM198.222 113.472V122.016H195.47V116H178.286V93.152H181.166V113.44H192.59V93.152H195.438V113.472H198.222ZM215.428 93.152C218.414 93.152 220.59 93.7387 221.956 94.912C223.321 96.0853 224.004 97.7387 224.004 99.872C224.004 100.811 223.844 101.717 223.524 102.592C223.225 103.445 222.724 104.213 222.02 104.896C221.316 105.579 220.377 106.123 219.204 106.528C218.03 106.912 216.59 107.104 214.884 107.104H212.26V116H209.38V93.152H215.428ZM215.172 95.616H212.26V104.64H214.564C216.014 104.64 217.22 104.491 218.18 104.192C219.14 103.872 219.854 103.371 220.324 102.688C220.793 102.005 221.028 101.109 221.028 100C221.028 98.528 220.558 97.4293 219.62 96.704C218.681 95.9787 217.198 95.616 215.172 95.616Z" fill="#080FB3"/>
<path d="M137.581 109.376L137.867 109.466L137.868 109.465L137.581 109.376ZM135.565 113.088L135.337 112.893L135.335 112.895L135.565 113.088ZM132.269 115.488L132.153 115.211L132.151 115.212L132.269 115.488ZM123.053 115.488L122.933 115.763L122.937 115.765L123.053 115.488ZM119.757 113.088L119.527 113.281L119.529 113.283L119.757 113.088ZM117.805 109.344L117.517 109.429L117.517 109.429L117.805 109.344ZM118.317 98.368L118.592 98.4886L118.592 98.4886L118.317 98.368ZM121.805 94.272L121.647 94.0172L121.645 94.0182L121.805 94.272ZM133.517 94.272L133.357 94.5258L133.36 94.5274L133.517 94.272ZM137.037 98.368L136.763 98.4902L136.765 98.4941L137.037 98.368ZM123.469 112.704L123.302 112.953L123.304 112.954L123.469 112.704ZM131.949 112.704L131.782 112.455L131.779 112.457L131.949 112.704ZM133.421 97.792L133.178 97.9685L133.18 97.97L133.421 97.792ZM123.469 96.448L123.633 96.6991L123.634 96.6983L123.469 96.448ZM121.005 99.616L121.285 99.7252L121.285 99.7237L121.005 99.616ZM137.953 104.544C137.953 106.29 137.732 107.87 137.294 109.287L137.868 109.465C138.326 107.981 138.553 106.34 138.553 104.544H137.953ZM137.295 109.286C136.858 110.68 136.205 111.881 135.337 112.893L135.793 113.283C136.718 112.204 137.408 110.93 137.867 109.466L137.295 109.286ZM135.335 112.895C134.493 113.902 133.434 114.674 132.153 115.211L132.385 115.765C133.75 115.192 134.888 114.365 135.795 113.281L135.335 112.895ZM132.151 115.212C130.895 115.748 129.421 116.02 127.725 116.02V116.62C129.485 116.62 131.041 116.338 132.387 115.764L132.151 115.212ZM127.725 116.02C125.963 116.02 124.447 115.747 123.169 115.211L122.937 115.765C124.304 116.338 125.903 116.62 127.725 116.62V116.02ZM123.173 115.213C121.889 114.654 120.828 113.88 119.985 112.893L119.529 113.283C120.435 114.344 121.572 115.17 122.933 115.763L123.173 115.213ZM119.987 112.895C119.142 111.885 118.509 110.675 118.093 109.259L117.517 109.429C117.954 110.915 118.623 112.2 119.527 113.281L119.987 112.895ZM118.093 109.259C117.676 107.84 117.465 106.259 117.465 104.512H116.865C116.865 106.307 117.081 107.946 117.517 109.429L118.093 109.259ZM117.465 104.512C117.465 102.198 117.844 100.192 118.592 98.4886L118.042 98.2474C117.254 100.042 116.865 102.133 116.865 104.512H117.465ZM118.592 98.4886C119.337 96.7919 120.46 95.4739 121.965 94.5258L121.645 94.0182C120.035 95.0327 118.833 96.4454 118.042 98.2474L118.592 98.4886ZM121.963 94.5268C123.483 93.5823 125.408 93.1 127.757 93.1V92.5C125.328 92.5 123.285 92.999 121.647 94.0172L121.963 94.5268ZM127.757 93.1C129.997 93.1 131.858 93.5812 133.357 94.5258L133.677 94.0182C132.061 93.0002 130.083 92.5 127.757 92.5V93.1ZM133.36 94.5274C134.862 95.4538 135.997 96.7711 136.763 98.4901L137.311 98.2459C136.499 96.4235 135.286 95.0102 133.674 94.0166L133.36 94.5274ZM136.765 98.4941C137.554 100.196 137.953 102.21 137.953 104.544H138.553C138.553 102.142 138.142 100.039 137.309 98.2419L136.765 98.4941ZM119.905 104.544C119.905 106.491 120.175 108.182 120.725 109.612L121.285 109.396C120.768 108.052 120.505 106.437 120.505 104.544H119.905ZM120.725 109.612C121.278 111.049 122.135 112.168 123.302 112.953L123.637 112.455C122.584 111.747 121.799 110.732 121.285 109.396L120.725 109.612ZM123.304 112.954C124.495 113.741 125.975 114.124 127.725 114.124V113.524C126.062 113.524 124.705 113.16 123.634 112.454L123.304 112.954ZM127.725 114.124C129.495 114.124 130.967 113.741 132.119 112.951L131.779 112.457C130.755 113.16 129.411 113.524 127.725 113.524V114.124ZM132.117 112.953C133.283 112.168 134.14 111.049 134.693 109.612L134.133 109.396C133.619 110.732 132.834 111.747 131.782 112.455L132.117 112.953ZM134.693 109.612C135.243 108.182 135.513 106.491 135.513 104.544H134.913C134.913 106.437 134.65 108.052 134.133 109.396L134.693 109.612ZM135.513 104.544C135.513 101.627 134.908 99.3049 133.663 97.614L133.18 97.97C134.323 99.5218 134.913 101.701 134.913 104.544H135.513ZM133.664 97.6155C132.398 95.8746 130.406 95.028 127.757 95.028V95.628C130.271 95.628 132.055 96.4241 133.178 97.9685L133.664 97.6155ZM127.757 95.028C125.986 95.028 124.495 95.4107 123.304 96.1977L123.634 96.6983C124.704 95.9919 126.072 95.628 127.757 95.628V95.028ZM123.305 96.1969C122.137 96.9608 121.278 98.0703 120.725 99.5083L121.285 99.7237C121.799 98.3884 122.583 97.3859 123.633 96.6991L123.305 96.1969ZM120.726 99.5068C120.175 100.916 119.905 102.598 119.905 104.544H120.505C120.505 102.65 120.768 101.047 121.285 99.7252L120.726 99.5068ZM157.188 96L157.303 96.2773L157.308 96.2751L157.188 96ZM154.692 97.824L154.919 98.0203L154.922 98.0172L154.692 97.824ZM153.124 100.736L153.41 100.828L153.41 100.826L153.124 100.736ZM153.444 109.472L153.167 109.587L153.169 109.591L153.444 109.472ZM156.068 112.672L155.905 112.924L155.907 112.925L156.068 112.672ZM163.3 113.536L163.244 113.241L163.244 113.241L163.3 113.536ZM165.924 112.896H166.224V112.493L165.838 112.609L165.924 112.896ZM165.924 115.392L166.029 115.673L166.224 115.6V115.392H165.924ZM163.268 116.096L163.22 115.8L163.219 115.8L163.268 116.096ZM154.212 114.88L154.369 114.625L154.369 114.625L154.212 114.88ZM150.692 110.784L150.417 110.903L150.418 110.906L150.692 110.784ZM150.244 99.808L149.96 99.7106L149.959 99.7144L150.244 99.808ZM152.356 96.096L152.133 95.8955L152.131 95.8981L152.356 96.096ZM155.812 93.696L155.925 93.974L155.929 93.9724L155.812 93.696ZM163.908 93.184L163.971 92.8907L163.971 92.8907L163.908 93.184ZM166.82 94.176L167.091 94.3044L167.217 94.039L166.954 93.9077L166.82 94.176ZM165.668 96.608L165.544 96.8811L165.813 97.0033L165.939 96.7364L165.668 96.608ZM163.3 95.744L163.214 96.0314L163.216 96.0319L163.3 95.744ZM160.484 95.06C159.233 95.06 158.092 95.2797 157.068 95.7249L157.308 96.2751C158.246 95.867 159.304 95.66 160.484 95.66V95.06ZM157.074 95.7227C156.048 96.1464 155.176 96.7832 154.463 97.6308L154.922 98.0172C155.573 97.2435 156.366 96.6643 157.303 96.2773L157.074 95.7227ZM154.465 97.6278C153.752 98.4526 153.211 99.4609 152.838 100.646L153.41 100.826C153.763 99.7071 154.267 98.7741 154.919 98.0202L154.465 97.6278ZM152.838 100.644C152.465 101.81 152.28 103.122 152.28 104.576H152.88C152.88 103.172 153.058 101.923 153.41 100.828L152.838 100.644ZM152.28 104.576C152.28 106.483 152.573 108.156 153.167 109.587L153.721 109.357C153.164 108.015 152.88 106.423 152.88 104.576H152.28ZM153.169 109.591C153.787 111.026 154.698 112.142 155.905 112.924L156.231 112.42C155.134 111.709 154.296 110.691 153.72 109.353L153.169 109.591ZM155.907 112.925C157.139 113.709 158.66 114.092 160.452 114.092V113.492C158.745 113.492 157.343 113.128 156.229 112.419L155.907 112.925ZM160.452 114.092C161.472 114.092 162.44 114.005 163.356 113.831L163.244 113.241C162.368 113.408 161.438 113.492 160.452 113.492V114.092ZM163.356 113.831C164.262 113.658 165.147 113.442 166.01 113.183L165.838 112.609C164.995 112.862 164.13 113.073 163.244 113.241L163.356 113.831ZM165.624 112.896V115.392H166.224V112.896H165.624ZM165.819 115.111C164.984 115.424 164.118 115.654 163.22 115.8L163.316 116.392C164.253 116.24 165.157 116 166.029 115.673L165.819 115.111ZM163.219 115.8C162.344 115.946 161.284 116.02 160.036 116.02V116.62C161.305 116.62 162.4 116.545 163.317 116.392L163.219 115.8ZM160.036 116.02C157.751 116.02 155.868 115.549 154.369 114.625L154.055 115.135C155.671 116.131 157.67 116.62 160.036 116.62V116.02ZM154.369 114.625C152.867 113.698 151.732 112.381 150.966 110.662L150.418 110.906C151.23 112.728 152.443 114.142 154.055 115.135L154.369 114.625ZM150.967 110.665C150.219 108.939 149.84 106.902 149.84 104.544H149.24C149.24 106.965 149.629 109.087 150.417 110.903L150.967 110.665ZM149.84 104.544C149.84 102.843 150.071 101.297 150.529 99.9016L149.959 99.7144C149.478 101.178 149.24 102.789 149.24 104.544H149.84ZM150.528 99.9054C151.007 98.5098 151.692 97.3074 152.582 96.2939L152.131 95.8981C151.185 96.9753 150.463 98.2475 149.96 99.7106L150.528 99.9054ZM152.579 96.2964C153.486 95.2866 154.6 94.5123 155.925 93.9739L155.699 93.4181C154.294 93.989 153.103 94.8147 152.133 95.8956L152.579 96.2964ZM155.929 93.9724C157.251 93.4147 158.778 93.132 160.516 93.132V92.532C158.713 92.532 157.104 92.8253 155.695 93.4196L155.929 93.9724ZM160.516 93.132C161.669 93.132 162.779 93.2473 163.845 93.4773L163.971 92.8907C162.861 92.6514 161.71 92.532 160.516 92.532V93.132ZM163.845 93.4773C164.912 93.7075 165.858 94.0306 166.686 94.4443L166.954 93.9077C166.075 93.4681 165.08 93.1299 163.971 92.8907L163.845 93.4773ZM166.549 94.0476L165.397 96.4796L165.939 96.7364L167.091 94.3044L166.549 94.0476ZM165.792 96.3349C165.073 96.0081 164.27 95.7154 163.384 95.4561L163.216 96.0319C164.079 96.2846 164.855 96.5679 165.544 96.8811L165.792 96.3349ZM163.386 95.4567C162.501 95.1911 161.533 95.06 160.484 95.06V95.66C161.483 95.66 162.392 95.7849 163.214 96.0313L163.386 95.4567ZM198.222 113.472H198.522V113.172H198.222V113.472ZM198.222 122.016V122.316H198.522V122.016H198.222ZM195.47 122.016H195.17V122.316H195.47V122.016ZM195.47 116H195.77V115.7H195.47V116ZM178.286 116H177.986V116.3H178.286V116ZM178.286 93.152V92.852H177.986V93.152H178.286ZM181.166 93.152H181.466V92.852H181.166V93.152ZM181.166 113.44H180.866V113.74H181.166V113.44ZM192.59 113.44V113.74H192.89V113.44H192.59ZM192.59 93.152V92.852H192.29V93.152H192.59ZM195.438 93.152H195.738V92.852H195.438V93.152ZM195.438 113.472H195.138V113.772H195.438V113.472ZM197.922 113.472V122.016H198.522V113.472H197.922ZM198.222 121.716H195.47V122.316H198.222V121.716ZM195.77 122.016V116H195.17V122.016H195.77ZM195.47 115.7H178.286V116.3H195.47V115.7ZM178.586 116V93.152H177.986V116H178.586ZM178.286 93.452H181.166V92.852H178.286V93.452ZM180.866 93.152V113.44H181.466V93.152H180.866ZM181.166 113.74H192.59V113.14H181.166V113.74ZM192.89 113.44V93.152H192.29V113.44H192.89ZM192.59 93.452H195.438V92.852H192.59V93.452ZM195.138 93.152V113.472H195.738V93.152H195.138ZM195.438 113.772H198.222V113.172H195.438V113.772ZM221.956 94.912L221.76 95.1395L221.76 95.1395L221.956 94.912ZM223.524 102.592L223.242 102.489L223.24 102.493L223.524 102.592ZM222.02 104.896L222.228 105.111L222.02 104.896ZM219.204 106.528L219.297 106.813L219.302 106.812L219.204 106.528ZM212.26 107.104V106.804H211.96V107.104H212.26ZM212.26 116V116.3H212.56V116H212.26ZM209.38 116H209.08V116.3H209.38V116ZM209.38 93.152V92.852H209.08V93.152H209.38ZM212.26 95.616V95.316H211.96V95.616H212.26ZM212.26 104.64H211.96V104.94H212.26V104.64ZM218.18 104.192L218.269 104.479L218.274 104.477L218.18 104.192ZM220.324 102.688L220.076 102.518L220.076 102.518L220.324 102.688ZM219.62 96.704L219.803 96.4666L219.803 96.4666L219.62 96.704ZM215.428 93.452C218.386 93.452 220.475 94.0352 221.76 95.1395L222.151 94.6845C220.705 93.4421 218.442 92.852 215.428 92.852V93.452ZM221.76 95.1395C223.047 96.2452 223.704 97.8083 223.704 99.872H224.304C224.304 97.669 223.595 95.9255 222.151 94.6845L221.76 95.1395ZM223.704 99.872C223.704 100.776 223.55 101.648 223.242 102.489L223.805 102.695C224.137 101.787 224.304 100.846 224.304 99.872H223.704ZM223.24 102.493C222.958 103.299 222.484 104.028 221.811 104.681L222.228 105.111C222.963 104.399 223.491 103.592 223.807 102.691L223.24 102.493ZM221.811 104.681C221.145 105.326 220.248 105.85 219.106 106.244L219.302 106.812C220.506 106.396 221.486 105.832 222.228 105.111L221.811 104.681ZM219.11 106.243C217.976 106.614 216.57 106.804 214.884 106.804V107.404C216.611 107.404 218.084 107.21 219.297 106.813L219.11 106.243ZM214.884 106.804H212.26V107.404H214.884V106.804ZM211.96 107.104V116H212.56V107.104H211.96ZM212.26 115.7H209.38V116.3H212.26V115.7ZM209.68 116V93.152H209.08V116H209.68ZM209.38 93.452H215.428V92.852H209.38V93.452ZM215.172 95.316H212.26V95.916H215.172V95.316ZM211.96 95.616V104.64H212.56V95.616H211.96ZM212.26 104.94H214.564V104.34H212.26V104.94ZM214.564 104.94C216.032 104.94 217.27 104.789 218.269 104.478L218.09 103.906C217.169 104.192 215.996 104.34 214.564 104.34V104.94ZM218.274 104.477C219.282 104.141 220.057 103.605 220.571 102.858L220.076 102.518C219.652 103.136 218.997 103.603 218.085 103.907L218.274 104.477ZM220.571 102.858C221.084 102.111 221.328 101.15 221.328 100H220.728C220.728 101.069 220.501 101.9 220.076 102.518L220.571 102.858ZM221.328 100C221.328 98.4598 220.833 97.2623 219.803 96.4666L219.436 96.9414C220.284 97.5963 220.728 98.5962 220.728 100H221.328ZM219.803 96.4666C218.786 95.6807 217.222 95.316 215.172 95.316V95.916C217.174 95.916 218.576 96.2766 219.436 96.9414L219.803 96.4666Z" fill="black"/>
</g>
<defs>
<clipPath id="clip0_4_29">
<rect width="400" height="300" fill="white" transform="translate(-35 -62)"/>
</clipPath>
</defs>
</svg>
