<svg width="366" height="273" viewBox="0 0 366 273" fill="none" xmlns="http://www.w3.org/2000/svg">
<g clip-path="url(#clip0_7_221)">
<path d="M192.031 98.1979C190.137 97.1241 187.923 96.569 185.581 96.7237C183.467 96.8602 181.518 97.57 179.889 98.6711L175.442 93.3385C171.938 95.9047 169.376 99.6721 168.388 104.04L161.059 102.957C162.879 93.8026 169.66 86.2496 178.709 83.4741" stroke="#2496F2" stroke-width="3.5" stroke-miterlimit="10"/>
<path d="M175.744 103.758C175.095 105.324 174.784 107.062 174.903 108.873C175.031 110.793 175.635 112.576 176.586 114.105C177.529 115.625 178.819 116.899 180.328 117.827L176.906 123.842C179.67 125.48 182.89 126.426 186.34 126.426C188.637 126.426 190.824 126.008 192.855 125.253L195.28 131.968C193.166 132.742 190.915 133.261 188.563 133.461C181.06 134.116 174.024 131.495 168.882 126.799" stroke="#2496F2" stroke-width="3.5" stroke-miterlimit="10"/>
<path d="M196.075 114.16C194.19 117.154 190.933 119.237 187.117 119.483" stroke="#2496F2" stroke-width="3.5" stroke-miterlimit="10"/>
<path d="M189.112 110.829C188.416 111.529 187.511 111.912 186.586 111.966C185.516 112.03 184.427 111.657 183.604 110.856C182.862 110.128 182.478 109.173 182.451 108.208C182.423 107.189 182.798 106.16 183.576 105.378C184.098 104.85 184.738 104.513 185.406 104.34C186.138 104.158 186.907 104.195 187.62 104.441C188.151 104.623 188.654 104.923 189.075 105.351" stroke="#2496F2" stroke-width="3.5" stroke-miterlimit="10"/>
<path d="M193.962 99.6084C196.313 101.692 197.796 104.732 197.796 108.108H204.768C204.768 102.702 202.417 97.843 198.674 94.4942L203.359 88.7339C208.144 92.929 211.384 98.8895 211.978 105.705C212.225 108.49 212.015 111.211 211.402 113.786" stroke="#2496F2" stroke-width="3.5" stroke-miterlimit="10"/>
<path d="M186.339 89.8441C190.488 89.8441 193.851 86.4991 193.851 82.373C193.851 78.2468 190.488 74.9019 186.339 74.9019C182.19 74.9019 178.827 78.2468 178.827 82.373C178.827 86.4991 182.19 89.8441 186.339 89.8441Z" stroke="#2496F2" stroke-width="3.5" stroke-miterlimit="10"/>
<path d="M208.684 128.328C212.833 128.328 216.196 124.984 216.196 120.857C216.196 116.731 212.833 113.386 208.684 113.386C204.535 113.386 201.172 116.731 201.172 120.857C201.172 124.984 204.535 128.328 208.684 128.328Z" stroke="#2496F2" stroke-width="3.5" stroke-miterlimit="10"/>
<path d="M164.05 128.328C168.199 128.328 171.562 124.984 171.562 120.857C171.562 116.731 168.199 113.386 164.05 113.386C159.901 113.386 156.538 116.731 156.538 120.857C156.538 124.984 159.901 128.328 164.05 128.328Z" stroke="#2496F2" stroke-width="3.5" stroke-miterlimit="10"/>
<path d="M134.911 177.874C134.911 178.538 134.827 179.142 134.659 179.686C134.491 180.222 134.239 180.686 133.903 181.078C133.575 181.47 133.163 181.77 132.667 181.978C132.179 182.186 131.611 182.29 130.963 182.29C130.291 182.29 129.707 182.186 129.211 181.978C128.715 181.762 128.303 181.462 127.975 181.078C127.647 180.686 127.403 180.218 127.243 179.674C127.083 179.13 127.003 178.526 127.003 177.862C127.003 176.982 127.147 176.214 127.435 175.558C127.723 174.902 128.159 174.39 128.743 174.022C129.335 173.654 130.079 173.47 130.975 173.47C131.831 173.47 132.551 173.654 133.135 174.022C133.719 174.382 134.159 174.894 134.455 175.558C134.759 176.214 134.911 176.986 134.911 177.874ZM128.143 177.874C128.143 178.594 128.243 179.214 128.443 179.734C128.643 180.254 128.951 180.654 129.367 180.934C129.791 181.214 130.323 181.354 130.963 181.354C131.611 181.354 132.139 181.214 132.547 180.934C132.963 180.654 133.271 180.254 133.471 179.734C133.671 179.214 133.771 178.594 133.771 177.874C133.771 176.794 133.547 175.95 133.099 175.342C132.651 174.726 131.943 174.418 130.975 174.418C130.327 174.418 129.791 174.558 129.367 174.838C128.951 175.11 128.643 175.506 128.443 176.026C128.243 176.538 128.143 177.154 128.143 177.874Z" fill="#080FB3"/>
<path d="M136.33 178.306C136.33 177.37 136.422 176.574 136.606 175.918C136.798 175.254 137.09 174.726 137.482 174.334C137.882 173.934 138.394 173.666 139.018 173.53C139.538 173.418 140.046 173.318 140.542 173.23C141.038 173.142 141.502 173.062 141.934 172.99L142.114 173.914C141.906 173.946 141.674 173.986 141.418 174.034C141.162 174.074 140.902 174.118 140.638 174.166C140.374 174.206 140.118 174.25 139.87 174.298C139.63 174.338 139.418 174.378 139.234 174.418C138.97 174.474 138.734 174.57 138.526 174.706C138.318 174.834 138.138 175.01 137.986 175.234C137.842 175.458 137.726 175.734 137.638 176.062C137.55 176.39 137.498 176.778 137.482 177.226H137.554C137.666 177.074 137.818 176.918 138.01 176.758C138.21 176.598 138.446 176.462 138.718 176.35C138.998 176.238 139.314 176.182 139.666 176.182C140.226 176.182 140.69 176.306 141.058 176.554C141.434 176.794 141.714 177.13 141.898 177.562C142.09 177.994 142.186 178.498 142.186 179.074C142.186 179.786 142.062 180.382 141.814 180.862C141.566 181.342 141.222 181.702 140.782 181.942C140.342 182.174 139.83 182.29 139.246 182.29C138.806 182.29 138.406 182.206 138.046 182.038C137.686 181.862 137.378 181.606 137.122 181.27C136.866 180.934 136.67 180.518 136.534 180.022C136.398 179.526 136.33 178.954 136.33 178.306ZM139.33 181.414C139.682 181.414 139.986 181.342 140.242 181.198C140.506 181.054 140.71 180.818 140.854 180.49C140.998 180.162 141.07 179.726 141.07 179.182C141.07 178.526 140.946 178.01 140.698 177.634C140.458 177.25 140.058 177.058 139.498 177.058C139.146 177.058 138.826 177.138 138.538 177.298C138.25 177.45 138.01 177.626 137.818 177.826C137.626 178.026 137.49 178.194 137.41 178.33C137.41 178.722 137.438 179.102 137.494 179.47C137.55 179.838 137.646 180.17 137.782 180.466C137.926 180.754 138.122 180.986 138.37 181.162C138.626 181.33 138.946 181.414 139.33 181.414ZM152.561 175.738V181.294H153.497V184.39H152.441V182.17H143.849V175.738H144.905V181.282H147.677V175.738H148.733V181.282H151.517V175.738H152.561ZM157.208 175.618C157.76 175.618 158.232 175.738 158.624 175.978C159.024 176.218 159.328 176.558 159.536 176.998C159.752 177.43 159.86 177.938 159.86 178.522V179.158H155.456C155.472 179.886 155.656 180.442 156.008 180.826C156.368 181.202 156.868 181.39 157.508 181.39C157.916 181.39 158.276 181.354 158.588 181.282C158.908 181.202 159.236 181.09 159.572 180.946V181.87C159.244 182.014 158.92 182.118 158.6 182.182C158.28 182.254 157.9 182.29 157.46 182.29C156.852 182.29 156.312 182.166 155.84 181.918C155.376 181.67 155.012 181.302 154.748 180.814C154.492 180.318 154.364 179.714 154.364 179.002C154.364 178.298 154.48 177.694 154.712 177.19C154.952 176.686 155.284 176.298 155.708 176.026C156.14 175.754 156.64 175.618 157.208 175.618ZM157.196 176.482C156.692 176.482 156.292 176.646 155.996 176.974C155.708 177.294 155.536 177.742 155.48 178.318H158.756C158.756 177.95 158.7 177.63 158.588 177.358C158.476 177.086 158.304 176.874 158.072 176.722C157.848 176.562 157.556 176.482 157.196 176.482ZM164.078 182.29C163.51 182.29 163.002 182.174 162.554 181.942C162.114 181.71 161.766 181.35 161.51 180.862C161.262 180.374 161.138 179.75 161.138 178.99C161.138 178.198 161.27 177.554 161.534 177.058C161.798 176.562 162.154 176.198 162.602 175.966C163.058 175.734 163.574 175.618 164.15 175.618C164.478 175.618 164.794 175.654 165.098 175.726C165.402 175.79 165.65 175.87 165.842 175.966L165.518 176.842C165.326 176.77 165.102 176.702 164.846 176.638C164.59 176.574 164.35 176.542 164.126 176.542C163.694 176.542 163.338 176.634 163.058 176.818C162.778 177.002 162.57 177.274 162.434 177.634C162.298 177.994 162.23 178.442 162.23 178.978C162.23 179.49 162.298 179.926 162.434 180.286C162.57 180.646 162.774 180.918 163.046 181.102C163.318 181.286 163.658 181.378 164.066 181.378C164.418 181.378 164.726 181.342 164.99 181.27C165.262 181.198 165.51 181.11 165.734 181.006V181.942C165.518 182.054 165.278 182.138 165.014 182.194C164.758 182.258 164.446 182.29 164.078 182.29ZM171.703 176.626H169.603V182.17H168.559V176.626H166.483V175.738H171.703V176.626ZM178.142 177.358C178.142 177.758 178.022 178.07 177.782 178.294C177.542 178.518 177.234 178.67 176.858 178.75V178.798C177.258 178.854 177.606 178.998 177.902 179.23C178.198 179.454 178.346 179.806 178.346 180.286C178.346 180.558 178.294 180.81 178.19 181.042C178.094 181.274 177.942 181.474 177.734 181.642C177.526 181.81 177.258 181.942 176.93 182.038C176.602 182.126 176.206 182.17 175.742 182.17H172.97V175.738H175.73C176.186 175.738 176.594 175.79 176.954 175.894C177.322 175.99 177.61 176.158 177.818 176.398C178.034 176.63 178.142 176.95 178.142 177.358ZM177.254 180.286C177.254 179.918 177.114 179.654 176.834 179.494C176.554 179.334 176.142 179.254 175.598 179.254H174.026V181.318H175.622C176.15 181.318 176.554 181.242 176.834 181.09C177.114 180.93 177.254 180.662 177.254 180.286ZM177.074 177.49C177.074 177.186 176.962 176.966 176.738 176.83C176.522 176.686 176.166 176.614 175.67 176.614H174.026V178.378H175.478C175.998 178.378 176.394 178.306 176.666 178.162C176.938 178.018 177.074 177.794 177.074 177.49ZM182.368 175.618C182.92 175.618 183.392 175.738 183.784 175.978C184.184 176.218 184.488 176.558 184.696 176.998C184.912 177.43 185.02 177.938 185.02 178.522V179.158H180.616C180.632 179.886 180.816 180.442 181.168 180.826C181.528 181.202 182.028 181.39 182.668 181.39C183.076 181.39 183.436 181.354 183.748 181.282C184.068 181.202 184.396 181.09 184.732 180.946V181.87C184.404 182.014 184.08 182.118 183.76 182.182C183.44 182.254 183.06 182.29 182.62 182.29C182.012 182.29 181.472 182.166 181 181.918C180.536 181.67 180.172 181.302 179.908 180.814C179.652 180.318 179.524 179.714 179.524 179.002C179.524 178.298 179.64 177.694 179.872 177.19C180.112 176.686 180.444 176.298 180.868 176.026C181.3 175.754 181.8 175.618 182.368 175.618ZM182.356 176.482C181.852 176.482 181.452 176.646 181.156 176.974C180.868 177.294 180.696 177.742 180.64 178.318H183.916C183.916 177.95 183.86 177.63 183.748 177.358C183.636 177.086 183.464 176.874 183.232 176.722C183.008 176.562 182.716 176.482 182.356 176.482ZM187.714 175.738V178.414H191.206V175.738H192.262V182.17H191.206V179.302H187.714V182.17H186.658V175.738H187.714ZM195.354 175.738V178.414H198.846V175.738H199.902V182.17H198.846V179.302H195.354V182.17H194.298V175.738H195.354ZM201.939 182.17V175.738H202.995V178.378H204.663C205.223 178.378 205.683 178.446 206.043 178.582C206.403 178.718 206.671 178.922 206.847 179.194C207.023 179.458 207.111 179.794 207.111 180.202C207.111 180.602 207.023 180.95 206.847 181.246C206.679 181.542 206.411 181.77 206.043 181.93C205.683 182.09 205.207 182.17 204.615 182.17H201.939ZM204.519 181.318C204.975 181.318 205.347 181.242 205.635 181.09C205.923 180.93 206.067 180.654 206.067 180.262C206.067 179.87 205.935 179.606 205.671 179.47C205.407 179.326 205.027 179.254 204.531 179.254H202.995V181.318H204.519ZM208.179 182.17V175.738H209.235V182.17H208.179ZM216.487 173.074C216.455 173.474 216.355 173.81 216.187 174.082C216.027 174.354 215.787 174.558 215.467 174.694C215.147 174.83 214.731 174.898 214.219 174.898C213.699 174.898 213.279 174.83 212.959 174.694C212.647 174.558 212.419 174.358 212.275 174.094C212.131 173.822 212.043 173.482 212.011 173.074H212.995C213.035 173.506 213.147 173.798 213.331 173.95C213.523 174.094 213.827 174.166 214.243 174.166C214.611 174.166 214.899 174.09 215.107 173.938C215.323 173.778 215.451 173.49 215.491 173.074H216.487ZM212.275 179.662C212.275 179.734 212.271 179.838 212.263 179.974C212.263 180.102 212.259 180.242 212.251 180.394C212.243 180.538 212.235 180.678 212.227 180.814C212.219 180.942 212.211 181.046 212.203 181.126L215.647 175.738H216.943V182.17H215.959V178.378C215.959 178.25 215.959 178.082 215.959 177.874C215.967 177.666 215.975 177.462 215.983 177.262C215.991 177.054 215.999 176.898 216.007 176.794L212.587 182.17H211.279V175.738H212.275V179.662ZM234.929 178.942C234.929 179.478 234.857 179.954 234.713 180.37C234.577 180.778 234.377 181.126 234.113 181.414C233.857 181.702 233.541 181.922 233.165 182.074C232.797 182.218 232.385 182.29 231.929 182.29C231.505 182.29 231.113 182.218 230.753 182.074C230.393 181.922 230.081 181.702 229.817 181.414C229.553 181.126 229.345 180.778 229.193 180.37C229.049 179.954 228.977 179.478 228.977 178.942C228.977 178.23 229.097 177.63 229.337 177.142C229.577 176.646 229.921 176.27 230.369 176.014C230.817 175.75 231.349 175.618 231.965 175.618C232.549 175.618 233.061 175.75 233.501 176.014C233.949 176.27 234.297 176.646 234.545 177.142C234.801 177.63 234.929 178.23 234.929 178.942ZM230.069 178.942C230.069 179.446 230.133 179.886 230.261 180.262C230.397 180.63 230.605 180.914 230.885 181.114C231.165 181.314 231.521 181.414 231.953 181.414C232.385 181.414 232.741 181.314 233.021 181.114C233.301 180.914 233.505 180.63 233.633 180.262C233.769 179.886 233.837 179.446 233.837 178.942C233.837 178.43 233.769 177.994 233.633 177.634C233.497 177.274 233.289 176.998 233.009 176.806C232.737 176.606 232.381 176.506 231.941 176.506C231.285 176.506 230.809 176.722 230.513 177.154C230.217 177.586 230.069 178.182 230.069 178.942ZM241.775 177.358C241.775 177.758 241.655 178.07 241.415 178.294C241.175 178.518 240.867 178.67 240.491 178.75V178.798C240.891 178.854 241.239 178.998 241.535 179.23C241.831 179.454 241.979 179.806 241.979 180.286C241.979 180.558 241.927 180.81 241.823 181.042C241.727 181.274 241.575 181.474 241.367 181.642C241.159 181.81 240.891 181.942 240.563 182.038C240.235 182.126 239.839 182.17 239.375 182.17H236.603V175.738H239.363C239.819 175.738 240.227 175.79 240.587 175.894C240.955 175.99 241.243 176.158 241.451 176.398C241.667 176.63 241.775 176.95 241.775 177.358ZM240.887 180.286C240.887 179.918 240.747 179.654 240.467 179.494C240.187 179.334 239.775 179.254 239.231 179.254H237.659V181.318H239.255C239.783 181.318 240.187 181.242 240.467 181.09C240.747 180.93 240.887 180.662 240.887 180.286ZM240.707 177.49C240.707 177.186 240.595 176.966 240.371 176.83C240.155 176.686 239.799 176.614 239.303 176.614H237.659V178.378H239.111C239.631 178.378 240.027 178.306 240.299 178.162C240.571 178.018 240.707 177.794 240.707 177.49ZM246.001 175.618C246.553 175.618 247.025 175.738 247.417 175.978C247.817 176.218 248.121 176.558 248.329 176.998C248.545 177.43 248.653 177.938 248.653 178.522V179.158H244.249C244.265 179.886 244.449 180.442 244.801 180.826C245.161 181.202 245.661 181.39 246.301 181.39C246.709 181.39 247.069 181.354 247.381 181.282C247.701 181.202 248.029 181.09 248.365 180.946V181.87C248.037 182.014 247.713 182.118 247.393 182.182C247.073 182.254 246.693 182.29 246.253 182.29C245.645 182.29 245.105 182.166 244.633 181.918C244.169 181.67 243.805 181.302 243.541 180.814C243.285 180.318 243.157 179.714 243.157 179.002C243.157 178.298 243.273 177.694 243.505 177.19C243.745 176.686 244.077 176.298 244.501 176.026C244.933 175.754 245.433 175.618 246.001 175.618ZM245.989 176.482C245.485 176.482 245.085 176.646 244.789 176.974C244.501 177.294 244.329 177.742 244.273 178.318H247.549C247.549 177.95 247.493 177.63 247.381 177.358C247.269 177.086 247.097 176.874 246.865 176.722C246.641 176.562 246.349 176.482 245.989 176.482ZM254.731 176.626H252.631V182.17H251.587V176.626H249.511V175.738H254.731V176.626Z" fill="white"/>
<path d="M225.571 174.43C225.115 174.43 224.703 174.51 224.335 174.67C223.967 174.822 223.655 175.05 223.399 175.354C223.143 175.65 222.947 176.014 222.811 176.446C222.675 176.87 222.607 177.35 222.607 177.886C222.607 178.59 222.715 179.202 222.931 179.722C223.155 180.242 223.483 180.642 223.915 180.922C224.355 181.202 224.903 181.342 225.559 181.342C225.935 181.342 226.291 181.31 226.627 181.246C226.963 181.182 227.291 181.102 227.611 181.006V181.942C227.291 182.062 226.959 182.15 226.615 182.206C226.279 182.262 225.875 182.29 225.403 182.29C224.531 182.29 223.803 182.11 223.219 181.75C222.635 181.39 222.195 180.878 221.899 180.214C221.611 179.55 221.467 178.77 221.467 177.874C221.467 177.226 221.555 176.634 221.731 176.098C221.915 175.562 222.179 175.098 222.523 174.706C222.875 174.314 223.307 174.014 223.819 173.806C224.331 173.59 224.919 173.482 225.583 173.482C226.023 173.482 226.447 173.526 226.855 173.614C227.263 173.702 227.627 173.826 227.947 173.986L227.515 174.898C227.251 174.778 226.955 174.67 226.627 174.574C226.307 174.478 225.955 174.43 225.571 174.43Z" fill="#080FB3"/>
<path d="M129.428 196.692V199.896H128.396V197.64H121.952V189.072H123.032V196.68H127.316V189.072H128.384V196.692H129.428ZM196.185 189.072C197.305 189.072 198.121 189.292 198.633 189.732C199.145 190.172 199.401 190.792 199.401 191.592C199.401 191.944 199.341 192.284 199.221 192.612C199.109 192.932 198.921 193.22 198.657 193.476C198.393 193.732 198.041 193.936 197.601 194.088C197.161 194.232 196.621 194.304 195.981 194.304H194.997V197.64H193.917V189.072H196.185ZM196.089 189.996H194.997V193.38H195.861C196.405 193.38 196.857 193.324 197.217 193.212C197.577 193.092 197.845 192.904 198.021 192.648C198.197 192.392 198.285 192.056 198.285 191.64C198.285 191.088 198.109 190.676 197.757 190.404C197.405 190.132 196.849 189.996 196.089 189.996Z" fill="#080FB3"/>
<path d="M131.699 195.132C131.699 195.204 131.695 195.308 131.687 195.444C131.687 195.572 131.683 195.712 131.675 195.864C131.667 196.008 131.659 196.148 131.651 196.284C131.643 196.412 131.635 196.516 131.627 196.596L135.071 191.208H136.367V197.64H135.383V193.848C135.383 193.72 135.383 193.552 135.383 193.344C135.391 193.136 135.399 192.932 135.407 192.732C135.415 192.524 135.423 192.368 135.431 192.264L132.011 197.64H130.703V191.208H131.699V195.132ZM142.254 191.112C142.894 191.168 143.45 191.336 143.922 191.616C144.402 191.896 144.774 192.272 145.038 192.744C145.302 193.216 145.434 193.776 145.434 194.424C145.434 195.072 145.306 195.636 145.05 196.116C144.794 196.588 144.43 196.964 143.958 197.244C143.486 197.516 142.918 197.68 142.254 197.736V200.52H141.222V197.736C140.59 197.68 140.034 197.516 139.554 197.244C139.074 196.964 138.702 196.588 138.438 196.116C138.174 195.636 138.042 195.072 138.042 194.424C138.042 193.768 138.17 193.204 138.426 192.732C138.682 192.252 139.05 191.876 139.53 191.604C140.01 191.324 140.586 191.16 141.258 191.112V188.52H142.254V191.112ZM141.258 191.988C140.77 192.036 140.37 192.16 140.058 192.36C139.746 192.56 139.514 192.832 139.362 193.176C139.218 193.52 139.146 193.936 139.146 194.424C139.146 194.904 139.218 195.32 139.362 195.672C139.514 196.016 139.746 196.292 140.058 196.5C140.37 196.7 140.77 196.824 141.258 196.872V191.988ZM142.254 196.872C142.734 196.816 143.126 196.688 143.43 196.488C143.742 196.288 143.97 196.016 144.114 195.672C144.266 195.32 144.342 194.904 144.342 194.424C144.342 193.944 144.266 193.532 144.114 193.188C143.962 192.844 143.73 192.572 143.418 192.372C143.114 192.172 142.726 192.048 142.254 192V196.872ZM150.169 191.088C150.961 191.088 151.597 191.364 152.077 191.916C152.565 192.468 152.809 193.3 152.809 194.412C152.809 195.14 152.697 195.756 152.473 196.26C152.257 196.756 151.949 197.132 151.549 197.388C151.157 197.636 150.693 197.76 150.157 197.76C149.829 197.76 149.537 197.716 149.281 197.628C149.025 197.54 148.805 197.428 148.621 197.292C148.445 197.148 148.293 196.992 148.165 196.824H148.093C148.109 196.96 148.125 197.132 148.141 197.34C148.157 197.548 148.165 197.728 148.165 197.88V200.52H147.109V191.208H147.973L148.117 192.084H148.165C148.293 191.9 148.445 191.732 148.621 191.58C148.805 191.428 149.021 191.308 149.269 191.22C149.525 191.132 149.825 191.088 150.169 191.088ZM149.977 191.976C149.545 191.976 149.197 192.06 148.933 192.228C148.669 192.388 148.477 192.632 148.357 192.96C148.237 193.288 148.173 193.704 148.165 194.208V194.412C148.165 194.94 148.221 195.388 148.333 195.756C148.445 196.124 148.633 196.404 148.897 196.596C149.169 196.788 149.537 196.884 150.001 196.884C150.393 196.884 150.713 196.776 150.961 196.56C151.217 196.344 151.405 196.052 151.525 195.684C151.653 195.308 151.717 194.88 151.717 194.4C151.717 193.664 151.573 193.076 151.285 192.636C151.005 192.196 150.569 191.976 149.977 191.976ZM160.084 194.412C160.084 194.948 160.012 195.424 159.868 195.84C159.732 196.248 159.532 196.596 159.268 196.884C159.012 197.172 158.696 197.392 158.32 197.544C157.952 197.688 157.54 197.76 157.084 197.76C156.66 197.76 156.268 197.688 155.908 197.544C155.548 197.392 155.236 197.172 154.972 196.884C154.708 196.596 154.5 196.248 154.348 195.84C154.204 195.424 154.132 194.948 154.132 194.412C154.132 193.7 154.252 193.1 154.492 192.612C154.732 192.116 155.076 191.74 155.524 191.484C155.972 191.22 156.504 191.088 157.12 191.088C157.704 191.088 158.216 191.22 158.656 191.484C159.104 191.74 159.452 192.116 159.7 192.612C159.956 193.1 160.084 193.7 160.084 194.412ZM155.224 194.412C155.224 194.916 155.288 195.356 155.416 195.732C155.552 196.1 155.76 196.384 156.04 196.584C156.32 196.784 156.676 196.884 157.108 196.884C157.54 196.884 157.896 196.784 158.176 196.584C158.456 196.384 158.66 196.1 158.788 195.732C158.924 195.356 158.992 194.916 158.992 194.412C158.992 193.9 158.924 193.464 158.788 193.104C158.652 192.744 158.444 192.468 158.164 192.276C157.892 192.076 157.536 191.976 157.096 191.976C156.44 191.976 155.964 192.192 155.668 192.624C155.372 193.056 155.224 193.652 155.224 194.412ZM166.93 192.828C166.93 193.228 166.81 193.54 166.57 193.764C166.33 193.988 166.022 194.14 165.646 194.22V194.268C166.046 194.324 166.394 194.468 166.69 194.7C166.986 194.924 167.134 195.276 167.134 195.756C167.134 196.028 167.082 196.28 166.978 196.512C166.882 196.744 166.73 196.944 166.522 197.112C166.314 197.28 166.046 197.412 165.718 197.508C165.39 197.596 164.994 197.64 164.53 197.64H161.758V191.208H164.518C164.974 191.208 165.382 191.26 165.742 191.364C166.11 191.46 166.398 191.628 166.606 191.868C166.822 192.1 166.93 192.42 166.93 192.828ZM166.042 195.756C166.042 195.388 165.902 195.124 165.622 194.964C165.342 194.804 164.93 194.724 164.386 194.724H162.814V196.788H164.41C164.938 196.788 165.342 196.712 165.622 196.56C165.902 196.4 166.042 196.132 166.042 195.756ZM165.862 192.96C165.862 192.656 165.75 192.436 165.526 192.3C165.31 192.156 164.954 192.084 164.458 192.084H162.814V193.848H164.266C164.786 193.848 165.182 193.776 165.454 193.632C165.726 193.488 165.862 193.264 165.862 192.96ZM174.264 194.412C174.264 194.948 174.192 195.424 174.048 195.84C173.912 196.248 173.712 196.596 173.448 196.884C173.192 197.172 172.876 197.392 172.5 197.544C172.132 197.688 171.72 197.76 171.264 197.76C170.84 197.76 170.448 197.688 170.088 197.544C169.728 197.392 169.416 197.172 169.152 196.884C168.888 196.596 168.68 196.248 168.528 195.84C168.384 195.424 168.312 194.948 168.312 194.412C168.312 193.7 168.432 193.1 168.672 192.612C168.912 192.116 169.256 191.74 169.704 191.484C170.152 191.22 170.684 191.088 171.3 191.088C171.884 191.088 172.396 191.22 172.836 191.484C173.284 191.74 173.632 192.116 173.88 192.612C174.136 193.1 174.264 193.7 174.264 194.412ZM169.404 194.412C169.404 194.916 169.468 195.356 169.596 195.732C169.732 196.1 169.94 196.384 170.22 196.584C170.5 196.784 170.856 196.884 171.288 196.884C171.72 196.884 172.076 196.784 172.356 196.584C172.636 196.384 172.84 196.1 172.968 195.732C173.104 195.356 173.172 194.916 173.172 194.412C173.172 193.9 173.104 193.464 172.968 193.104C172.832 192.744 172.624 192.468 172.344 192.276C172.072 192.076 171.716 191.976 171.276 191.976C170.62 191.976 170.144 192.192 169.848 192.624C169.552 193.056 169.404 193.652 169.404 194.412ZM182.837 191.208V197.64H181.889V193.536C181.889 193.368 181.893 193.192 181.901 193.008C181.917 192.824 181.933 192.644 181.949 192.468H181.913L179.813 197.64H178.925L176.885 192.468H176.849C176.865 192.644 176.873 192.824 176.873 193.008C176.881 193.192 176.885 193.38 176.885 193.572V197.64H175.937V191.208H177.341L179.369 196.38L181.433 191.208H182.837ZM183.882 191.208H185.01L186.402 194.868C186.482 195.084 186.554 195.292 186.618 195.492C186.69 195.692 186.754 195.888 186.81 196.08C186.866 196.264 186.91 196.444 186.942 196.62H186.99C187.038 196.42 187.114 196.16 187.218 195.84C187.322 195.512 187.43 195.184 187.542 194.856L188.85 191.208H189.99L187.218 198.528C187.066 198.928 186.886 199.276 186.678 199.572C186.478 199.876 186.23 200.108 185.934 200.268C185.646 200.436 185.294 200.52 184.878 200.52C184.686 200.52 184.518 200.508 184.374 200.484C184.23 200.468 184.106 200.448 184.002 200.424V199.584C184.09 199.6 184.194 199.616 184.314 199.632C184.442 199.648 184.574 199.656 184.71 199.656C184.958 199.656 185.17 199.608 185.346 199.512C185.53 199.424 185.686 199.292 185.814 199.116C185.942 198.948 186.05 198.748 186.138 198.516L186.474 197.664L183.882 191.208ZM203.475 191.1C204.259 191.1 204.839 191.272 205.215 191.616C205.591 191.96 205.779 192.508 205.779 193.26V197.64H205.011L204.807 196.728H204.759C204.575 196.96 204.383 197.156 204.183 197.316C203.991 197.468 203.767 197.58 203.511 197.652C203.263 197.724 202.959 197.76 202.599 197.76C202.215 197.76 201.867 197.692 201.555 197.556C201.251 197.42 201.011 197.212 200.835 196.932C200.659 196.644 200.571 196.284 200.571 195.852C200.571 195.212 200.823 194.72 201.327 194.376C201.831 194.024 202.607 193.832 203.655 193.8L204.747 193.764V193.38C204.747 192.844 204.631 192.472 204.399 192.264C204.167 192.056 203.839 191.952 203.415 191.952C203.079 191.952 202.759 192.004 202.455 192.108C202.151 192.204 201.867 192.316 201.603 192.444L201.279 191.652C201.559 191.5 201.891 191.372 202.275 191.268C202.659 191.156 203.059 191.1 203.475 191.1ZM203.787 194.532C202.987 194.564 202.431 194.692 202.119 194.916C201.815 195.14 201.663 195.456 201.663 195.864C201.663 196.224 201.771 196.488 201.987 196.656C202.211 196.824 202.495 196.908 202.839 196.908C203.383 196.908 203.835 196.76 204.195 196.464C204.555 196.16 204.735 195.696 204.735 195.072V194.496L203.787 194.532ZM209.457 191.088C209.945 191.088 210.369 191.156 210.729 191.292C211.089 191.42 211.369 191.612 211.569 191.868C211.769 192.116 211.869 192.42 211.869 192.78C211.869 193.172 211.761 193.484 211.545 193.716C211.329 193.94 211.033 194.104 210.657 194.208V194.256C210.913 194.328 211.149 194.428 211.365 194.556C211.581 194.684 211.753 194.852 211.881 195.06C212.017 195.268 212.085 195.536 212.085 195.864C212.085 196.216 211.985 196.536 211.785 196.824C211.593 197.112 211.293 197.34 210.885 197.508C210.485 197.676 209.969 197.76 209.337 197.76C209.033 197.76 208.741 197.744 208.461 197.712C208.189 197.68 207.941 197.632 207.717 197.568C207.501 197.504 207.309 197.428 207.141 197.34V196.392C207.413 196.52 207.733 196.636 208.101 196.74C208.477 196.844 208.885 196.896 209.325 196.896C209.645 196.896 209.933 196.86 210.189 196.788C210.453 196.716 210.661 196.604 210.813 196.452C210.965 196.292 211.041 196.076 211.041 195.804C211.041 195.556 210.973 195.356 210.837 195.204C210.701 195.044 210.497 194.924 210.225 194.844C209.961 194.764 209.621 194.724 209.205 194.724H208.341V193.86H209.037C209.589 193.86 210.029 193.788 210.357 193.644C210.693 193.492 210.861 193.236 210.861 192.876C210.861 192.572 210.733 192.344 210.477 192.192C210.229 192.04 209.869 191.964 209.397 191.964C209.045 191.964 208.733 192 208.461 192.072C208.197 192.136 207.905 192.236 207.585 192.372L207.213 191.532C207.557 191.38 207.917 191.268 208.293 191.196C208.669 191.124 209.057 191.088 209.457 191.088ZM218.82 192.828C218.82 193.228 218.7 193.54 218.46 193.764C218.22 193.988 217.912 194.14 217.536 194.22V194.268C217.936 194.324 218.284 194.468 218.58 194.7C218.876 194.924 219.024 195.276 219.024 195.756C219.024 196.028 218.972 196.28 218.868 196.512C218.772 196.744 218.62 196.944 218.412 197.112C218.204 197.28 217.936 197.412 217.608 197.508C217.28 197.596 216.884 197.64 216.42 197.64H213.648V191.208H216.408C216.864 191.208 217.272 191.26 217.632 191.364C218 191.46 218.288 191.628 218.496 191.868C218.712 192.1 218.82 192.42 218.82 192.828ZM217.932 195.756C217.932 195.388 217.792 195.124 217.512 194.964C217.232 194.804 216.82 194.724 216.276 194.724H214.704V196.788H216.3C216.828 196.788 217.232 196.712 217.512 196.56C217.792 196.4 217.932 196.132 217.932 195.756ZM217.752 192.96C217.752 192.656 217.64 192.436 217.416 192.3C217.2 192.156 216.844 192.084 216.348 192.084H214.704V193.848H216.156C216.676 193.848 217.072 193.776 217.344 193.632C217.616 193.488 217.752 193.264 217.752 192.96ZM221.558 195.132C221.558 195.204 221.554 195.308 221.546 195.444C221.546 195.572 221.542 195.712 221.534 195.864C221.526 196.008 221.518 196.148 221.51 196.284C221.502 196.412 221.494 196.516 221.486 196.596L224.93 191.208H226.226V197.64H225.242V193.848C225.242 193.72 225.242 193.552 225.242 193.344C225.25 193.136 225.258 192.932 225.266 192.732C225.274 192.524 225.282 192.368 225.29 192.264L221.87 197.64H220.562V191.208H221.558V195.132ZM232.713 192.096H230.613V197.64H229.569V192.096H227.493V191.208H232.713V192.096ZM234.976 195.132C234.976 195.204 234.972 195.308 234.964 195.444C234.964 195.572 234.96 195.712 234.952 195.864C234.944 196.008 234.936 196.148 234.928 196.284C234.92 196.412 234.912 196.516 234.904 196.596L238.348 191.208H239.644V197.64H238.66V193.848C238.66 193.72 238.66 193.552 238.66 193.344C238.668 193.136 238.676 192.932 238.684 192.732C238.692 192.524 238.7 192.368 238.708 192.264L235.288 197.64H233.98V191.208H234.976V195.132ZM250.043 194.412C250.043 195.124 249.927 195.732 249.695 196.236C249.463 196.732 249.135 197.112 248.711 197.376C248.287 197.632 247.783 197.76 247.199 197.76C246.655 197.76 246.179 197.648 245.771 197.424C245.363 197.192 245.039 196.856 244.799 196.416C244.559 195.968 244.419 195.42 244.379 194.772H242.747V197.64H241.691V191.208H242.747V193.884H244.391C244.447 193.276 244.595 192.768 244.835 192.36C245.083 191.944 245.407 191.628 245.807 191.412C246.215 191.196 246.687 191.088 247.223 191.088C247.775 191.088 248.263 191.22 248.687 191.484C249.111 191.74 249.443 192.116 249.683 192.612C249.923 193.1 250.043 193.7 250.043 194.412ZM245.459 194.412C245.459 194.948 245.519 195.4 245.639 195.768C245.767 196.136 245.959 196.416 246.215 196.608C246.471 196.792 246.803 196.884 247.211 196.884C247.619 196.884 247.951 196.792 248.207 196.608C248.463 196.416 248.651 196.136 248.771 195.768C248.891 195.4 248.951 194.948 248.951 194.412C248.951 193.876 248.891 193.428 248.771 193.068C248.651 192.708 248.463 192.436 248.207 192.252C247.951 192.068 247.619 191.976 247.211 191.976C246.803 191.976 246.471 192.068 246.215 192.252C245.959 192.436 245.767 192.708 245.639 193.068C245.519 193.428 245.459 193.876 245.459 194.412Z" fill="white"/>
<path d="M123.603 206.362C124.723 206.362 125.539 206.582 126.051 207.022C126.563 207.462 126.819 208.082 126.819 208.882C126.819 209.234 126.759 209.574 126.639 209.902C126.527 210.222 126.339 210.51 126.075 210.766C125.811 211.022 125.459 211.226 125.019 211.378C124.579 211.522 124.039 211.594 123.399 211.594H122.415V214.93H121.335V206.362H123.603ZM123.507 207.286H122.415V210.67H123.279C123.823 210.67 124.275 210.614 124.635 210.502C124.995 210.382 125.263 210.194 125.439 209.938C125.615 209.682 125.703 209.346 125.703 208.93C125.703 208.378 125.527 207.966 125.175 207.694C124.823 207.422 124.267 207.286 123.507 207.286ZM130.941 208.378C131.493 208.378 131.965 208.498 132.357 208.738C132.757 208.978 133.061 209.318 133.269 209.758C133.485 210.19 133.593 210.698 133.593 211.282V211.918H129.189C129.205 212.646 129.389 213.202 129.741 213.586C130.101 213.962 130.601 214.15 131.241 214.15C131.649 214.15 132.009 214.114 132.321 214.042C132.641 213.962 132.969 213.85 133.305 213.706V214.63C132.977 214.774 132.653 214.878 132.333 214.942C132.013 215.014 131.633 215.05 131.193 215.05C130.585 215.05 130.045 214.926 129.573 214.678C129.109 214.43 128.745 214.062 128.481 213.574C128.225 213.078 128.097 212.474 128.097 211.762C128.097 211.058 128.213 210.454 128.445 209.95C128.685 209.446 129.017 209.058 129.441 208.786C129.873 208.514 130.373 208.378 130.941 208.378ZM130.929 209.242C130.425 209.242 130.025 209.406 129.729 209.734C129.441 210.054 129.269 210.502 129.213 211.078H132.489C132.489 210.71 132.433 210.39 132.321 210.118C132.209 209.846 132.037 209.634 131.805 209.482C131.581 209.322 131.289 209.242 130.929 209.242ZM137.81 215.05C137.242 215.05 136.734 214.934 136.286 214.702C135.846 214.47 135.498 214.11 135.242 213.622C134.994 213.134 134.87 212.51 134.87 211.75C134.87 210.958 135.002 210.314 135.266 209.818C135.53 209.322 135.886 208.958 136.334 208.726C136.79 208.494 137.306 208.378 137.882 208.378C138.21 208.378 138.526 208.414 138.83 208.486C139.134 208.55 139.382 208.63 139.574 208.726L139.25 209.602C139.058 209.53 138.834 209.462 138.578 209.398C138.322 209.334 138.082 209.302 137.858 209.302C137.426 209.302 137.07 209.394 136.79 209.578C136.51 209.762 136.302 210.034 136.166 210.394C136.03 210.754 135.962 211.202 135.962 211.738C135.962 212.25 136.03 212.686 136.166 213.046C136.302 213.406 136.506 213.678 136.778 213.862C137.05 214.046 137.39 214.138 137.798 214.138C138.15 214.138 138.458 214.102 138.722 214.03C138.994 213.958 139.242 213.87 139.466 213.766V214.702C139.25 214.814 139.01 214.898 138.746 214.954C138.49 215.018 138.178 215.05 137.81 215.05ZM146.432 208.498V214.93H145.376V209.398H142.052V214.93H140.996V208.498H146.432ZM147.476 208.498H148.604L149.996 212.158C150.076 212.374 150.148 212.582 150.212 212.782C150.284 212.982 150.348 213.178 150.404 213.37C150.46 213.554 150.504 213.734 150.536 213.91H150.584C150.632 213.71 150.708 213.45 150.812 213.13C150.916 212.802 151.024 212.474 151.136 212.146L152.444 208.498H153.584L150.812 215.818C150.66 216.218 150.48 216.566 150.272 216.862C150.072 217.166 149.824 217.398 149.528 217.558C149.24 217.726 148.888 217.81 148.472 217.81C148.28 217.81 148.112 217.798 147.968 217.774C147.824 217.758 147.7 217.738 147.596 217.714V216.874C147.684 216.89 147.788 216.906 147.908 216.922C148.036 216.938 148.168 216.946 148.304 216.946C148.552 216.946 148.764 216.898 148.94 216.802C149.124 216.714 149.28 216.582 149.408 216.406C149.536 216.238 149.644 216.038 149.732 215.806L150.068 214.954L147.476 208.498ZM154.265 211.066C154.265 210.13 154.357 209.334 154.541 208.678C154.733 208.014 155.025 207.486 155.417 207.094C155.817 206.694 156.329 206.426 156.953 206.29C157.473 206.178 157.981 206.078 158.477 205.99C158.973 205.902 159.437 205.822 159.869 205.75L160.049 206.674C159.841 206.706 159.609 206.746 159.353 206.794C159.097 206.834 158.837 206.878 158.573 206.926C158.309 206.966 158.053 207.01 157.805 207.058C157.565 207.098 157.353 207.138 157.169 207.178C156.905 207.234 156.669 207.33 156.461 207.466C156.253 207.594 156.073 207.77 155.921 207.994C155.777 208.218 155.661 208.494 155.573 208.822C155.485 209.15 155.433 209.538 155.417 209.986H155.489C155.601 209.834 155.753 209.678 155.945 209.518C156.145 209.358 156.381 209.222 156.653 209.11C156.933 208.998 157.249 208.942 157.601 208.942C158.161 208.942 158.625 209.066 158.993 209.314C159.369 209.554 159.649 209.89 159.833 210.322C160.025 210.754 160.121 211.258 160.121 211.834C160.121 212.546 159.997 213.142 159.749 213.622C159.501 214.102 159.157 214.462 158.717 214.702C158.277 214.934 157.765 215.05 157.181 215.05C156.741 215.05 156.341 214.966 155.981 214.798C155.621 214.622 155.313 214.366 155.057 214.03C154.801 213.694 154.605 213.278 154.469 212.782C154.333 212.286 154.265 211.714 154.265 211.066ZM157.265 214.174C157.617 214.174 157.921 214.102 158.177 213.958C158.441 213.814 158.645 213.578 158.789 213.25C158.933 212.922 159.005 212.486 159.005 211.942C159.005 211.286 158.881 210.77 158.633 210.394C158.393 210.01 157.993 209.818 157.433 209.818C157.081 209.818 156.761 209.898 156.473 210.058C156.185 210.21 155.945 210.386 155.753 210.586C155.561 210.786 155.425 210.954 155.345 211.09C155.345 211.482 155.373 211.862 155.429 212.23C155.485 212.598 155.581 212.93 155.717 213.226C155.861 213.514 156.057 213.746 156.305 213.922C156.561 214.09 156.881 214.174 157.265 214.174ZM166.681 214.93H165.613V209.374H163.717C163.637 210.39 163.537 211.258 163.417 211.978C163.297 212.69 163.145 213.27 162.961 213.718C162.777 214.166 162.557 214.494 162.301 214.702C162.045 214.91 161.745 215.014 161.401 215.014C161.297 215.014 161.193 215.006 161.089 214.99C160.993 214.982 160.913 214.962 160.849 214.93V214.138C160.897 214.154 160.949 214.166 161.005 214.174C161.061 214.182 161.117 214.186 161.173 214.186C161.349 214.186 161.509 214.114 161.653 213.97C161.797 213.826 161.925 213.606 162.037 213.31C162.157 213.014 162.265 212.642 162.361 212.194C162.457 211.738 162.541 211.202 162.613 210.586C162.685 209.97 162.749 209.274 162.805 208.498H166.681V214.93ZM169.718 212.422C169.718 212.494 169.714 212.598 169.706 212.734C169.706 212.862 169.702 213.002 169.694 213.154C169.686 213.298 169.678 213.438 169.67 213.574C169.662 213.702 169.654 213.806 169.646 213.886L173.09 208.498H174.386V214.93H173.402V211.138C173.402 211.01 173.402 210.842 173.402 210.634C173.41 210.426 173.418 210.222 173.426 210.022C173.434 209.814 173.442 209.658 173.45 209.554L170.03 214.93H168.722V208.498H169.718V212.422ZM180.237 208.498H181.389L178.641 211.594L181.617 214.93H180.393L177.489 211.666V214.93H176.433V208.498H177.489V211.618L180.237 208.498ZM183.781 212.422C183.781 212.494 183.777 212.598 183.769 212.734C183.769 212.862 183.765 213.002 183.757 213.154C183.749 213.298 183.741 213.438 183.733 213.574C183.725 213.702 183.717 213.806 183.709 213.886L187.153 208.498H188.449V214.93H187.465V211.138C187.465 211.01 187.465 210.842 187.465 210.634C187.473 210.426 187.481 210.222 187.489 210.022C187.497 209.814 187.505 209.658 187.513 209.554L184.093 214.93H182.785V208.498H183.781V212.422ZM193.417 206.362H194.425V211.066C194.425 211.266 194.421 211.486 194.413 211.726C194.413 211.958 194.409 212.19 194.401 212.422C194.393 212.654 194.381 212.862 194.365 213.046C194.357 213.222 194.349 213.358 194.341 213.454H194.389L199.105 206.362H200.305V214.93H199.297V210.274C199.297 210.058 199.301 209.826 199.309 209.578C199.317 209.322 199.325 209.078 199.333 208.846C199.349 208.606 199.361 208.394 199.369 208.21C199.377 208.026 199.385 207.89 199.393 207.802H199.345L194.617 214.93H193.417V206.362ZM203.528 208.498V211.174H207.02V208.498H208.076V214.93H207.02V212.062H203.528V214.93H202.472V208.498H203.528ZM214.037 208.498V209.386H211.169V214.93H210.113V208.498H214.037ZM214.296 208.498H215.424L216.816 212.158C216.896 212.374 216.968 212.582 217.032 212.782C217.104 212.982 217.168 213.178 217.224 213.37C217.28 213.554 217.324 213.734 217.356 213.91H217.404C217.452 213.71 217.528 213.45 217.632 213.13C217.736 212.802 217.844 212.474 217.956 212.146L219.264 208.498H220.404L217.632 215.818C217.48 216.218 217.3 216.566 217.092 216.862C216.892 217.166 216.644 217.398 216.348 217.558C216.06 217.726 215.708 217.81 215.292 217.81C215.1 217.81 214.932 217.798 214.788 217.774C214.644 217.758 214.52 217.738 214.416 217.714V216.874C214.504 216.89 214.608 216.906 214.728 216.922C214.856 216.938 214.988 216.946 215.124 216.946C215.372 216.946 215.584 216.898 215.76 216.802C215.944 216.714 216.1 216.582 216.228 216.406C216.356 216.238 216.464 216.038 216.552 215.806L216.888 214.954L214.296 208.498ZM230.146 208.498V214.93H221.422V208.498H222.478V214.042H225.25V208.498H226.306V214.042H229.09V208.498H230.146ZM234.687 208.378C235.239 208.378 235.711 208.498 236.103 208.738C236.503 208.978 236.807 209.318 237.015 209.758C237.231 210.19 237.339 210.698 237.339 211.282V211.918H232.935C232.951 212.646 233.135 213.202 233.487 213.586C233.847 213.962 234.347 214.15 234.987 214.15C235.395 214.15 235.755 214.114 236.067 214.042C236.387 213.962 236.715 213.85 237.051 213.706V214.63C236.723 214.774 236.399 214.878 236.079 214.942C235.759 215.014 235.379 215.05 234.939 215.05C234.331 215.05 233.791 214.926 233.319 214.678C232.855 214.43 232.491 214.062 232.227 213.574C231.971 213.078 231.843 212.474 231.843 211.762C231.843 211.058 231.959 210.454 232.191 209.95C232.431 209.446 232.763 209.058 233.187 208.786C233.619 208.514 234.119 208.378 234.687 208.378ZM234.675 209.242C234.171 209.242 233.771 209.406 233.475 209.734C233.187 210.054 233.015 210.502 232.959 211.078H236.235C236.235 210.71 236.179 210.39 236.067 210.118C235.955 209.846 235.783 209.634 235.551 209.482C235.327 209.322 235.035 209.242 234.675 209.242ZM243.416 209.386H241.316V214.93H240.272V209.386H238.196V208.498H243.416V209.386ZM245.679 212.422C245.679 212.494 245.675 212.598 245.667 212.734C245.667 212.862 245.663 213.002 245.655 213.154C245.647 213.298 245.639 213.438 245.631 213.574C245.623 213.702 245.615 213.806 245.607 213.886L249.051 208.498H250.347V214.93H249.363V211.138C249.363 211.01 249.363 210.842 249.363 210.634C249.371 210.426 249.379 210.222 249.387 210.022C249.395 209.814 249.403 209.658 249.411 209.554L245.991 214.93H244.683V208.498H245.679V212.422ZM252.79 214.93H251.566L253.402 212.23C253.154 212.166 252.914 212.066 252.682 211.93C252.45 211.786 252.262 211.59 252.118 211.342C251.974 211.086 251.902 210.77 251.902 210.394C251.902 209.778 252.11 209.31 252.526 208.99C252.942 208.662 253.494 208.498 254.182 208.498H257.062V214.93H256.006V212.374H254.446L252.79 214.93ZM252.922 210.406C252.922 210.774 253.058 211.05 253.33 211.234C253.61 211.41 253.998 211.498 254.494 211.498H256.006V209.374H254.29C253.802 209.374 253.45 209.47 253.234 209.662C253.026 209.854 252.922 210.102 252.922 210.406Z" fill="white"/>
<path d="M155.792 153.314C155.792 155.085 155.568 156.695 155.12 158.146C154.672 159.575 154 160.813 153.104 161.858C152.23 162.903 151.131 163.703 149.808 164.258C148.507 164.813 146.992 165.09 145.264 165.09C143.472 165.09 141.915 164.813 140.592 164.258C139.27 163.682 138.171 162.882 137.296 161.858C136.422 160.813 135.771 159.565 135.344 158.114C134.918 156.663 134.704 155.053 134.704 153.282C134.704 150.935 135.088 148.887 135.856 147.138C136.624 145.389 137.787 144.023 139.344 143.042C140.923 142.061 142.907 141.57 145.296 141.57C147.579 141.57 149.499 142.061 151.056 143.042C152.614 144.002 153.787 145.367 154.576 147.138C155.387 148.887 155.792 150.946 155.792 153.314ZM137.744 153.314C137.744 155.234 138.011 156.887 138.544 158.274C139.078 159.661 139.899 160.727 141.008 161.474C142.139 162.221 143.558 162.594 145.264 162.594C146.992 162.594 148.4 162.221 149.488 161.474C150.598 160.727 151.419 159.661 151.952 158.274C152.486 156.887 152.752 155.234 152.752 153.314C152.752 150.434 152.155 148.183 150.96 146.562C149.766 144.919 147.878 144.098 145.296 144.098C143.568 144.098 142.139 144.471 141.008 145.218C139.899 145.943 139.078 146.999 138.544 148.386C138.011 149.751 137.744 151.394 137.744 153.314ZM178.023 144.13C176.807 144.13 175.709 144.343 174.727 144.77C173.746 145.175 172.914 145.783 172.231 146.594C171.549 147.383 171.026 148.354 170.663 149.506C170.301 150.637 170.119 151.917 170.119 153.346C170.119 155.223 170.407 156.855 170.983 158.242C171.581 159.629 172.455 160.695 173.607 161.442C174.781 162.189 176.242 162.562 177.991 162.562C178.994 162.562 179.943 162.477 180.839 162.306C181.735 162.135 182.61 161.922 183.463 161.666V164.162C182.61 164.482 181.725 164.717 180.807 164.866C179.911 165.015 178.834 165.09 177.575 165.09C175.25 165.09 173.309 164.61 171.751 163.65C170.194 162.69 169.021 161.325 168.231 159.554C167.463 157.783 167.079 155.703 167.079 153.314C167.079 151.586 167.314 150.007 167.783 148.578C168.274 147.149 168.978 145.911 169.895 144.866C170.834 143.821 171.986 143.021 173.351 142.466C174.717 141.89 176.285 141.602 178.055 141.602C179.229 141.602 180.359 141.719 181.447 141.954C182.535 142.189 183.506 142.519 184.359 142.946L183.207 145.378C182.503 145.058 181.714 144.77 180.839 144.514C179.986 144.258 179.047 144.13 178.023 144.13ZM215.761 162.242V170.786H213.009V164.77H195.825V141.922H198.705V162.21H210.129V141.922H212.977V162.242H215.761ZM232.967 141.922C235.953 141.922 238.129 142.509 239.495 143.682C240.86 144.855 241.543 146.509 241.543 148.642C241.543 149.581 241.383 150.487 241.063 151.362C240.764 152.215 240.263 152.983 239.559 153.666C238.855 154.349 237.916 154.893 236.743 155.298C235.569 155.682 234.129 155.874 232.423 155.874H229.799V164.77H226.919V141.922H232.967ZM232.711 144.386H229.799V153.41H232.103C233.553 153.41 234.759 153.261 235.719 152.962C236.679 152.642 237.393 152.141 237.863 151.458C238.332 150.775 238.567 149.879 238.567 148.77C238.567 147.298 238.097 146.199 237.159 145.474C236.22 144.749 234.737 144.386 232.711 144.386Z" fill="#080FB3"/>
<path d="M155.12 158.146L155.407 158.236L155.407 158.235L155.12 158.146ZM153.104 161.858L152.876 161.663L152.874 161.666L153.104 161.858ZM149.808 164.258L149.692 163.981L149.691 163.982L149.808 164.258ZM140.592 164.258L140.472 164.533L140.476 164.535L140.592 164.258ZM137.296 161.858L137.066 162.051L137.068 162.053L137.296 161.858ZM135.344 158.114L135.056 158.199L135.056 158.199L135.344 158.114ZM135.856 147.138L136.131 147.259L136.131 147.259L135.856 147.138ZM139.344 143.042L139.186 142.787L139.184 142.788L139.344 143.042ZM151.056 143.042L150.896 143.296L150.899 143.297L151.056 143.042ZM154.576 147.138L154.302 147.26L154.304 147.264L154.576 147.138ZM141.008 161.474L140.841 161.723L140.843 161.724L141.008 161.474ZM149.488 161.474L149.321 161.225L149.319 161.227L149.488 161.474ZM150.96 146.562L150.718 146.738L150.719 146.74L150.96 146.562ZM141.008 145.218L141.172 145.469L141.174 145.468L141.008 145.218ZM138.544 148.386L138.824 148.495L138.824 148.494L138.544 148.386ZM155.492 153.314C155.492 155.06 155.271 156.64 154.834 158.057L155.407 158.235C155.865 156.751 156.092 155.11 156.092 153.314H155.492ZM154.834 158.056C154.397 159.45 153.744 160.651 152.876 161.663L153.332 162.053C154.257 160.974 154.947 159.7 155.407 158.236L154.834 158.056ZM152.874 161.666C152.032 162.672 150.973 163.444 149.692 163.981L149.924 164.535C151.289 163.962 152.427 163.135 153.334 162.051L152.874 161.666ZM149.691 163.982C148.434 164.518 146.961 164.79 145.264 164.79V165.39C147.024 165.39 148.58 165.108 149.926 164.534L149.691 163.982ZM145.264 164.79C143.502 164.79 141.986 164.517 140.708 163.981L140.476 164.535C141.844 165.108 143.442 165.39 145.264 165.39V164.79ZM140.712 163.983C139.428 163.424 138.367 162.65 137.524 161.663L137.068 162.053C137.974 163.114 139.111 163.94 140.472 164.533L140.712 163.983ZM137.526 161.666C136.681 160.655 136.048 159.445 135.632 158.029L135.056 158.199C135.493 159.685 136.162 160.97 137.066 162.051L137.526 161.666ZM135.632 158.029C135.215 156.61 135.004 155.029 135.004 153.282H134.404C134.404 155.077 134.62 156.716 135.056 158.199L135.632 158.029ZM135.004 153.282C135.004 150.968 135.383 148.962 136.131 147.259L135.582 147.017C134.794 148.812 134.404 150.903 134.404 153.282H135.004ZM136.131 147.259C136.876 145.562 138 144.244 139.504 143.296L139.184 142.788C137.574 143.803 136.373 145.215 135.582 147.017L136.131 147.259ZM139.503 143.297C141.022 142.352 142.947 141.87 145.296 141.87V141.27C142.867 141.27 140.824 141.769 139.186 142.787L139.503 143.297ZM145.296 141.87C147.536 141.87 149.397 142.351 150.896 143.296L151.216 142.788C149.601 141.77 147.622 141.27 145.296 141.27V141.87ZM150.899 143.297C152.402 144.224 153.536 145.541 154.302 147.26L154.85 147.016C154.038 145.194 152.826 143.78 151.214 142.787L150.899 143.297ZM154.304 147.264C155.093 148.966 155.492 150.98 155.492 153.314H156.092C156.092 150.912 155.681 148.809 154.848 147.012L154.304 147.264ZM137.444 153.314C137.444 155.261 137.714 156.952 138.264 158.382L138.824 158.166C138.307 156.822 138.044 155.207 138.044 153.314H137.444ZM138.264 158.382C138.817 159.819 139.675 160.938 140.841 161.723L141.176 161.225C140.123 160.517 139.338 159.502 138.824 158.166L138.264 158.382ZM140.843 161.724C142.034 162.511 143.514 162.894 145.264 162.894V162.294C143.601 162.294 142.244 161.93 141.174 161.224L140.843 161.724ZM145.264 162.894C147.034 162.894 148.507 162.512 149.658 161.721L149.319 161.227C148.294 161.93 146.95 162.294 145.264 162.294V162.894ZM149.656 161.723C150.822 160.938 151.679 159.819 152.232 158.382L151.672 158.166C151.158 159.502 150.373 160.517 149.321 161.225L149.656 161.723ZM152.232 158.382C152.782 156.952 153.052 155.261 153.052 153.314H152.452C152.452 155.207 152.189 156.822 151.672 158.166L152.232 158.382ZM153.052 153.314C153.052 150.397 152.448 148.075 151.202 146.384L150.719 146.74C151.862 148.292 152.452 150.471 152.452 153.314H153.052ZM151.203 146.386C149.937 144.645 147.945 143.798 145.296 143.798V144.398C147.81 144.398 149.594 145.194 150.718 146.738L151.203 146.386ZM145.296 143.798C143.526 143.798 142.035 144.181 140.843 144.968L141.174 145.468C142.243 144.762 143.611 144.398 145.296 144.398V143.798ZM140.844 144.967C139.676 145.731 138.817 146.84 138.264 148.278L138.824 148.494C139.338 147.158 140.122 146.156 141.172 145.469L140.844 144.967ZM138.265 148.277C137.714 149.686 137.444 151.368 137.444 153.314H138.044C138.044 151.42 138.307 149.817 138.824 148.495L138.265 148.277ZM174.727 144.77L174.842 145.047L174.847 145.045L174.727 144.77ZM172.231 146.594L172.458 146.79L172.461 146.787L172.231 146.594ZM170.663 149.506L170.949 149.598L170.949 149.596L170.663 149.506ZM170.983 158.242L170.706 158.357L170.708 158.361L170.983 158.242ZM173.607 161.442L173.444 161.694L173.446 161.695L173.607 161.442ZM180.839 162.306L180.783 162.011L180.783 162.011L180.839 162.306ZM183.463 161.666H183.763V161.263L183.377 161.379L183.463 161.666ZM183.463 164.162L183.569 164.443L183.763 164.37V164.162H183.463ZM180.807 164.866L180.759 164.57L180.758 164.57L180.807 164.866ZM171.751 163.65L171.909 163.395L171.909 163.395L171.751 163.65ZM168.231 159.554L167.956 159.673L167.957 159.676L168.231 159.554ZM167.783 148.578L167.499 148.481L167.498 148.484L167.783 148.578ZM169.895 144.866L169.672 144.666L169.67 144.668L169.895 144.866ZM173.351 142.466L173.464 142.744L173.468 142.742L173.351 142.466ZM181.447 141.954L181.511 141.661L181.511 141.661L181.447 141.954ZM184.359 142.946L184.63 143.074L184.756 142.809L184.493 142.678L184.359 142.946ZM183.207 145.378L183.083 145.651L183.352 145.773L183.478 145.506L183.207 145.378ZM180.839 144.514L180.753 144.801L180.755 144.802L180.839 144.514ZM178.023 143.83C176.772 143.83 175.632 144.05 174.608 144.495L174.847 145.045C175.786 144.637 176.843 144.43 178.023 144.43V143.83ZM174.613 144.493C173.587 144.916 172.716 145.553 172.002 146.401L172.461 146.787C173.112 146.013 173.905 145.434 174.842 145.047L174.613 144.493ZM172.004 146.398C171.291 147.223 170.75 148.231 170.377 149.416L170.949 149.596C171.302 148.477 171.806 147.544 172.458 146.79L172.004 146.398ZM170.378 149.414C170.004 150.58 169.819 151.892 169.819 153.346H170.419C170.419 151.942 170.597 150.693 170.949 149.598L170.378 149.414ZM169.819 153.346C169.819 155.253 170.112 156.926 170.706 158.357L171.26 158.127C170.703 156.785 170.419 155.193 170.419 153.346H169.819ZM170.708 158.361C171.326 159.796 172.237 160.912 173.444 161.694L173.77 161.19C172.673 160.479 171.835 159.461 171.259 158.123L170.708 158.361ZM173.446 161.695C174.679 162.479 176.2 162.862 177.991 162.862V162.262C176.284 162.262 174.883 161.898 173.768 161.189L173.446 161.695ZM177.991 162.862C179.011 162.862 179.979 162.775 180.895 162.601L180.783 162.011C179.907 162.178 178.977 162.262 177.991 162.262V162.862ZM180.895 162.601C181.801 162.428 182.686 162.212 183.549 161.953L183.377 161.379C182.534 161.632 181.669 161.843 180.783 162.011L180.895 162.601ZM183.163 161.666V164.162H183.763V161.666H183.163ZM183.358 163.881C182.523 164.194 181.657 164.424 180.759 164.57L180.855 165.162C181.792 165.01 182.696 164.77 183.569 164.443L183.358 163.881ZM180.758 164.57C179.883 164.716 178.823 164.79 177.575 164.79V165.39C178.845 165.39 179.939 165.315 180.857 165.162L180.758 164.57ZM177.575 164.79C175.291 164.79 173.407 164.319 171.909 163.395L171.594 163.905C173.21 164.902 175.209 165.39 177.575 165.39V164.79ZM171.909 163.395C170.406 162.468 169.272 161.151 168.505 159.432L167.957 159.676C168.77 161.498 169.982 162.912 171.594 163.905L171.909 163.395ZM168.506 159.435C167.758 157.709 167.379 155.672 167.379 153.314H166.779C166.779 155.735 167.168 157.857 167.956 159.673L168.506 159.435ZM167.379 153.314C167.379 151.613 167.61 150.067 168.068 148.672L167.498 148.484C167.018 149.948 166.779 151.559 166.779 153.314H167.379ZM168.067 148.675C168.546 147.28 169.231 146.077 170.121 145.064L169.67 144.668C168.725 145.745 168.002 147.018 167.5 148.481L168.067 148.675ZM170.118 145.066C171.025 144.057 172.139 143.282 173.464 142.744L173.238 142.188C171.833 142.759 170.643 143.585 169.672 144.666L170.118 145.066ZM173.468 142.742C174.79 142.185 176.317 141.902 178.055 141.902V141.302C176.252 141.302 174.643 141.595 173.235 142.19L173.468 142.742ZM178.055 141.902C179.208 141.902 180.318 142.017 181.384 142.247L181.511 141.661C180.401 141.421 179.249 141.302 178.055 141.302V141.902ZM181.384 142.247C182.451 142.477 183.398 142.801 184.225 143.214L184.493 142.678C183.614 142.238 182.619 141.9 181.511 141.661L181.384 142.247ZM184.088 142.818L182.936 145.25L183.478 145.506L184.63 143.074L184.088 142.818ZM183.331 145.105C182.612 144.778 181.809 144.485 180.924 144.226L180.755 144.802C181.618 145.055 182.394 145.338 183.083 145.651L183.331 145.105ZM180.925 144.227C180.04 143.961 179.072 143.83 178.023 143.83V144.43C179.022 144.43 179.932 144.555 180.753 144.801L180.925 144.227ZM215.761 162.242H216.061V161.942H215.761V162.242ZM215.761 170.786V171.086H216.061V170.786H215.761ZM213.009 170.786H212.709V171.086H213.009V170.786ZM213.009 164.77H213.309V164.47H213.009V164.77ZM195.825 164.77H195.525V165.07H195.825V164.77ZM195.825 141.922V141.622H195.525V141.922H195.825ZM198.705 141.922H199.005V141.622H198.705V141.922ZM198.705 162.21H198.405V162.51H198.705V162.21ZM210.129 162.21V162.51H210.429V162.21H210.129ZM210.129 141.922V141.622H209.829V141.922H210.129ZM212.977 141.922H213.277V141.622H212.977V141.922ZM212.977 162.242H212.677V162.542H212.977V162.242ZM215.461 162.242V170.786H216.061V162.242H215.461ZM215.761 170.486H213.009V171.086H215.761V170.486ZM213.309 170.786V164.77H212.709V170.786H213.309ZM213.009 164.47H195.825V165.07H213.009V164.47ZM196.125 164.77V141.922H195.525V164.77H196.125ZM195.825 142.222H198.705V141.622H195.825V142.222ZM198.405 141.922V162.21H199.005V141.922H198.405ZM198.705 162.51H210.129V161.91H198.705V162.51ZM210.429 162.21V141.922H209.829V162.21H210.429ZM210.129 142.222H212.977V141.622H210.129V142.222ZM212.677 141.922V162.242H213.277V141.922H212.677ZM212.977 162.542H215.761V161.942H212.977V162.542ZM239.495 143.682L239.299 143.91L239.299 143.91L239.495 143.682ZM241.063 151.362L240.781 151.259L240.78 151.263L241.063 151.362ZM239.559 153.666L239.768 153.881L239.559 153.666ZM236.743 155.298L236.836 155.583L236.841 155.582L236.743 155.298ZM229.799 155.874V155.574H229.499V155.874H229.799ZM229.799 164.77V165.07H230.099V164.77H229.799ZM226.919 164.77H226.619V165.07H226.919V164.77ZM226.919 141.922V141.622H226.619V141.922H226.919ZM229.799 144.386V144.086H229.499V144.386H229.799ZM229.799 153.41H229.499V153.71H229.799V153.41ZM235.719 152.962L235.808 153.249L235.814 153.247L235.719 152.962ZM237.863 151.458L237.616 151.288L237.616 151.288L237.863 151.458ZM237.159 145.474L237.342 145.237L237.342 145.237L237.159 145.474ZM232.967 142.222C235.926 142.222 238.014 142.805 239.299 143.91L239.69 143.454C238.245 142.212 235.981 141.622 232.967 141.622V142.222ZM239.299 143.91C240.586 145.015 241.243 146.578 241.243 148.642H241.843C241.843 146.439 241.134 144.695 239.69 143.454L239.299 143.91ZM241.243 148.642C241.243 149.546 241.089 150.418 240.781 151.259L241.344 151.465C241.677 150.557 241.843 149.616 241.843 148.642H241.243ZM240.78 151.263C240.498 152.069 240.023 152.798 239.35 153.451L239.768 153.881C240.502 153.169 241.031 152.362 241.346 151.461L240.78 151.263ZM239.35 153.451C238.685 154.096 237.787 154.62 236.645 155.014L236.841 155.582C238.045 155.166 239.025 154.602 239.768 153.881L239.35 153.451ZM236.649 155.013C235.515 155.384 234.109 155.574 232.423 155.574V156.174C234.15 156.174 235.624 155.98 236.836 155.583L236.649 155.013ZM232.423 155.574H229.799V156.174H232.423V155.574ZM229.499 155.874V164.77H230.099V155.874H229.499ZM229.799 164.47H226.919V165.07H229.799V164.47ZM227.219 164.77V141.922H226.619V164.77H227.219ZM226.919 142.222H232.967V141.622H226.919V142.222ZM232.711 144.086H229.799V144.686H232.711V144.086ZM229.499 144.386V153.41H230.099V144.386H229.499ZM229.799 153.71H232.103V153.11H229.799V153.71ZM232.103 153.71C233.571 153.71 234.809 153.559 235.808 153.248L235.63 152.676C234.708 152.962 233.535 153.11 232.103 153.11V153.71ZM235.814 153.247C236.821 152.911 237.596 152.375 238.11 151.628L237.616 151.288C237.191 151.906 236.536 152.373 235.624 152.677L235.814 153.247ZM238.11 151.628C238.624 150.881 238.867 149.92 238.867 148.77H238.267C238.267 149.839 238.041 150.67 237.616 151.288L238.11 151.628ZM238.867 148.77C238.867 147.23 238.372 146.032 237.342 145.237L236.975 145.711C237.823 146.366 238.267 147.366 238.267 148.77H238.867ZM237.342 145.237C236.325 144.451 234.761 144.086 232.711 144.086V144.686C234.714 144.686 236.115 145.047 236.975 145.711L237.342 145.237Z" fill="black"/>
</g>
<defs>
<clipPath id="clip0_7_221">
<rect width="366" height="273" fill="white"/>
</clipPath>
</defs>
</svg>
